STARTFONT 2.3
FONT -FontForge-Syncopate-Book-R-Normal--16-160-72-72-P-120-ISO10646-1
SIZE 16 72 72  4
FONTBOUNDINGBOX 30 19 -3 -4
COMMENT "Generated by fontforge, http://fontforge.sourceforge.net"
COMMENT "Copyright (c) 2010 by Brian J. Bonislawsky DBA Astigmatic (AOETI). All rights reserved. Available under the Apache 2.0 licence.http://www.apache.org/licenses/LICENSE-2.0.html"
STARTPROPERTIES 40
FOUNDRY "FontForge"
FAMILY_NAME "Syncopate"
WEIGHT_NAME "Book"
SLANT "R"
SETWIDTH_NAME "Normal"
ADD_STYLE_NAME ""
PIXEL_SIZE 16
POINT_SIZE 160
RESOLUTION_X 72
RESOLUTION_Y 72
SPACING "P"
AVERAGE_WIDTH 120
CHARSET_REGISTRY "ISO10646"
CHARSET_ENCODING "1"
FONTNAME_REGISTRY ""
CHARSET_COLLECTIONS "ISO8859-2 ISO8859-9 ISO8859-4 ISO10646-1"
BITS_PER_PIXEL 4
FONT_NAME "Syncopate-Regular"
FACE_NAME "Syncopate Regular"
COPYRIGHT "Copyright (c) 2010 by Brian J. Bonislawsky DBA Astigmatic (AOETI). All rights reserved. Available under the Apache 2.0 licence.http://www.apache.org/licenses/LICENSE-2.0.html"
FONT_VERSION "001.001"
FONT_ASCENT 13
FONT_DESCENT 3
UNDERLINE_POSITION -2
UNDERLINE_THICKNESS 1
X_HEIGHT 10
CAP_HEIGHT 10
RAW_ASCENT 799
RAW_DESCENT 200
NORM_SPACE 6
RELATIVE_WEIGHT 40
RELATIVE_SETWIDTH 70
SUPERSCRIPT_X 0
SUPERSCRIPT_Y 4
SUPERSCRIPT_SIZE 3
SUBSCRIPT_X 0
SUBSCRIPT_Y 4
SUBSCRIPT_SIZE 3
AVG_LOWERCASE_WIDTH 138
AVG_UPPERCASE_WIDTH 131
ENDPROPERTIES
CHARS 370
STARTCHAR space
ENCODING 32
SWIDTH 375 0
DWIDTH 6 0
BBX 1 1 0 0
BITMAP
00
ENDCHAR
STARTCHAR exclam
ENCODING 33
SWIDTH 274 0
DWIDTH 4 0
BBX 2 11 1 0
BITMAP
6C
6C
5B
5B
4A
3A
39
28
00
6C
6C
ENDCHAR
STARTCHAR quotedbl
ENCODING 34
SWIDTH 290 0
DWIDTH 5 0
BBX 5 3 0 8
BITMAP
6A0F10
590E00
580D00
ENDCHAR
STARTCHAR numbersign
ENCODING 35
SWIDTH 701 0
DWIDTH 11 0
BBX 11 11 0 0
BITMAP
0000B100B100
0000C000C000
000390029000
04FFFFFFFF60
000830084000
000B000B1000
001B000B0000
3FFFFFFFF800
006600660000
00A200920000
00C000C00000
ENDCHAR
STARTCHAR dollar
ENCODING 36
SWIDTH 767 0
DWIDTH 12 0
BBX 10 13 1 -1
BITMAP
0000470000
03ADFFD940
4D625725B2
A500470000
8900470000
09D8870000
0027CFB610
00004849D3
000047004D
000047001E
87325715C8
17BEFFEB50
0000470000
ENDCHAR
STARTCHAR percent
ENCODING 37
SWIDTH 992 0
DWIDTH 16 0
BBX 15 11 0 0
BITMAP
02BEE910002C2000
0D51299000B40000
2C0001D009700000
0D5119905A000000
02BEE913C1000000
0000001C30000000
000000A507DEC400
000007905B214D20
00004C0095000860
0002D2005B203D20
000C400007DEC400
ENDCHAR
STARTCHAR ampersand
ENCODING 38
SWIDTH 926 0
DWIDTH 15 0
BBX 13 11 1 0
BITMAP
0019DFD8100000
00D8202A800000
01E00007800000
00C20079000000
003C7A40000000
018AD300000000
1B302C60000D10
950001A9103B00
B6000006C5C300
4E7300138FB000
039DEFEB716C30
ENDCHAR
STARTCHAR quotesingle
ENCODING 39
SWIDTH 140 0
DWIDTH 2 0
BBX 2 3 0 8
BITMAP
6A
59
58
ENDCHAR
STARTCHAR parenleft
ENCODING 40
SWIDTH 420 0
DWIDTH 7 0
BBX 4 13 1 -1
BITMAP
002B
01D5
0A80
2E00
7900
9600
A500
9600
7900
2E00
0A80
01D5
002B
ENDCHAR
STARTCHAR parenright
ENCODING 41
SWIDTH 420 0
DWIDTH 7 0
BBX 5 13 1 -1
BITMAP
2A1000
08B000
00C600
003C00
000D30
000A50
000960
000A50
000D30
003C00
00B600
08B000
2B1000
ENDCHAR
STARTCHAR asterisk
ENCODING 42
SWIDTH 503 0
DWIDTH 8 0
BBX 6 7 1 4
BITMAP
006700
815618
4C99C5
02EE20
5C99C5
815618
006700
ENDCHAR
STARTCHAR plus
ENCODING 43
SWIDTH 634 0
DWIDTH 10 0
BBX 8 7 1 2
BITMAP
00058000
00058000
00058000
AFFFFFFC
00058000
00058000
00058000
ENDCHAR
STARTCHAR comma
ENCODING 44
SWIDTH 185 0
DWIDTH 3 0
BBX 3 3 0 -1
BITMAP
1F20
4C00
8800
ENDCHAR
STARTCHAR hyphen
ENCODING 45
SWIDTH 540 0
DWIDTH 9 0
BBX 7 1 1 5
BITMAP
BFFFFF50
ENDCHAR
STARTCHAR period
ENCODING 46
SWIDTH 185 0
DWIDTH 3 0
BBX 3 2 0 0
BITMAP
3F20
3F20
ENDCHAR
STARTCHAR slash
ENCODING 47
SWIDTH 500 0
DWIDTH 8 0
BBX 6 11 1 0
BITMAP
00001C
000086
0001D0
000870
001D10
007700
00D100
068000
0D1000
680000
C10000
ENDCHAR
STARTCHAR zero
ENCODING 48
SWIDTH 833 0
DWIDTH 13 0
BBX 12 11 1 0
BITMAP
0028DEEA4000
05E72015D900
2D2000000B70
9600000002E1
D100000000B3
E000000000A5
D100000000B3
9600000002E1
2D2000000B70
05D72015D900
0029DFEA4000
ENDCHAR
STARTCHAR one
ENCODING 49
SWIDTH 339 0
DWIDTH 5 0
BBX 4 11 0 0
BITMAP
39E8
C688
0078
0078
0078
0078
0078
0078
0078
0078
0078
ENDCHAR
STARTCHAR two
ENCODING 50
SWIDTH 728 0
DWIDTH 12 0
BBX 11 11 0 0
BITMAP
049DFEDA5000
3A521125CA00
000000000C40
000000000960
000000000D30
00000000A700
0000002C6000
000007C30000
0005C7000000
03B910000000
4FFFFFFFFFA0
ENDCHAR
STARTCHAR three
ENCODING 51
SWIDTH 726 0
DWIDTH 12 0
BBX 11 11 0 0
BITMAP
049DFFDB5000
2B520025C900
000000001E00
000000001D00
00000136B400
0003FFFB3000
00000125A900
000000000960
000000000A60
59421014AC10
06BEFFDB6000
ENDCHAR
STARTCHAR four
ENCODING 52
SWIDTH 769 0
DWIDTH 12 0
BBX 12 11 0 0
BITMAP
0000002DE100
000002D4D100
00002D40D100
0002D400D100
002D4000D100
02D40000D100
2D400000D100
8FFFFFFFFFFC
00000000D100
00000000D100
00000000D100
ENDCHAR
STARTCHAR five
ENCODING 53
SWIDTH 738 0
DWIDTH 12 0
BBX 10 11 1 0
BITMAP
9FFFFFFFE0
9500000000
9500000000
9500000000
9DDFFEC810
00000249E3
000000006A
000000002D
000000006A
B6210249D2
49DEFEC710
ENDCHAR
STARTCHAR six
ENCODING 54
SWIDTH 772 0
DWIDTH 12 0
BBX 11 11 1 0
BITMAP
0028CEFC8100
05D731037800
2D2000000000
970000000000
C239DEEC7100
EAC620139D10
D70000000880
B500000005A0
5D1000000880
08C51014AC10
004AEFEC7100
ENDCHAR
STARTCHAR seven
ENCODING 55
SWIDTH 669 0
DWIDTH 11 0
BBX 11 11 0 0
BITMAP
FFFFFFFFFF30
000000006A00
00000001D200
0000000A7000
0000004C0000
000001D30000
000008900000
00003D100000
0000C5000000
0006B0000000
001E20000000
ENDCHAR
STARTCHAR eight
ENCODING 56
SWIDTH 793 0
DWIDTH 13 0
BBX 12 11 0 0
BITMAP
0016CEFEB500
00C931014C80
04C0000001E0
02D1000004C0
006D83149C20
0004DFFFB200
02BA62137C91
0D4000000089
1E100000004C
0AC6200137E5
005ADEFEC820
ENDCHAR
STARTCHAR nine
ENCODING 57
SWIDTH 776 0
DWIDTH 12 0
BBX 12 11 0 0
BITMAP
004ADFEC7100
07D621139D20
1E10000006B0
4B00000000D2
2E10000003E5
08C510139DC5
004BDFEB60B4
0000000001E1
000000000A80
04941025BA00
006BEFEA5000
ENDCHAR
STARTCHAR colon
ENCODING 58
SWIDTH 245 0
DWIDTH 4 0
BBX 2 7 1 0
BITMAP
BA
BA
00
00
00
BA
BA
ENDCHAR
STARTCHAR semicolon
ENCODING 59
SWIDTH 234 0
DWIDTH 4 0
BBX 3 8 0 -1
BITMAP
0BA0
0BA0
0000
0000
0000
0B70
0E20
3C00
ENDCHAR
STARTCHAR less
ENCODING 60
SWIDTH 634 0
DWIDTH 10 0
BBX 8 7 1 2
BITMAP
0000017A
0004AD82
28DA4000
CD200000
28DA4000
0004AD82
0000017A
ENDCHAR
STARTCHAR equal
ENCODING 61
SWIDTH 634 0
DWIDTH 10 0
BBX 8 4 1 3
BITMAP
AFFFFFFC
00000000
00000000
AFFFFFFC
ENDCHAR
STARTCHAR greater
ENCODING 62
SWIDTH 634 0
DWIDTH 10 0
BBX 8 7 1 2
BITMAP
98200000
17DB5000
00039D93
000001BE
00039D93
17DB5000
98200000
ENDCHAR
STARTCHAR question
ENCODING 63
SWIDTH 568 0
DWIDTH 9 0
BBX 7 11 1 0
BITMAP
4BEEC700
A4114B90
000002E0
000006B0
0014AB10
07D83000
08700000
00000000
00000000
08A00000
08A00000
ENDCHAR
STARTCHAR at
ENCODING 64
SWIDTH 1016 0
DWIDTH 16 0
BBX 14 11 1 0
BITMAP
00016BDFEC8300
005D9420137D80
06D200000001B6
2E2018DFDD302D
9800B9203E000F
B502E0001C003D
B501E3029C14D6
7A005DFD7BFD50
1D600000000000
02DB520126C200
0006BDFFDA4000
ENDCHAR
STARTCHAR A
ENCODING 65
SWIDTH 812 0
DWIDTH 13 0
BBX 13 11 0 0
BITMAP
000005F5000000
00000C6D000000
00005B0A600000
0000C302D00000
0005A000960000
000D20002D0000
00690000096000
00DFFFFFFFD000
06900000009600
0D200000002D10
6A000000000970
ENDCHAR
STARTCHAR B
ENCODING 66
SWIDTH 836 0
DWIDTH 13 0
BBX 12 11 1 0
BITMAP
3FFFFFFEC600
3C0000014C50
3C0000000590
3C0000000590
3C0000014C30
3FFFFFFFE700
3C00000138D1
3C00000000B5
3C00000000A6
3C00000016E2
3FFFFFFFEA30
ENDCHAR
STARTCHAR C
ENCODING 67
SWIDTH 869 0
DWIDTH 14 0
BBX 12 11 1 0
BITMAP
0006ADFFDB72
02DA5200148A
1D4000000000
880000000000
C30000000000
E10000000000
C30000000000
880000000000
1D4000000000
03DA5200147A
0006ADFFEB72
ENDCHAR
STARTCHAR D
ENCODING 68
SWIDTH 910 0
DWIDTH 15 0
BBX 13 11 1 0
BITMAP
3FFFFFFEC71000
3C0000014AD300
3C000000006D00
3C000000000D40
3C000000000970
3C000000000880
3C000000000960
3C000000000C40
3C000000006C00
3C00000249D200
3FFFFFFEC71000
ENDCHAR
STARTCHAR E
ENCODING 69
SWIDTH 754 0
DWIDTH 12 0
BBX 10 11 1 0
BITMAP
3FFFFFFFFB
3D00000000
3D00000000
3D00000000
3D00000000
3FFFFFFFF5
3D00000000
3D00000000
3D00000000
3D00000000
3FFFFFFFFD
ENDCHAR
STARTCHAR F
ENCODING 70
SWIDTH 687 0
DWIDTH 11 0
BBX 10 11 1 0
BITMAP
3FFFFFFFF5
3C00000000
3C00000000
3C00000000
3C00000000
3FFFFFFFE0
3C00000000
3C00000000
3C00000000
3C00000000
3C00000000
ENDCHAR
STARTCHAR G
ENCODING 71
SWIDTH 910 0
DWIDTH 15 0
BBX 13 11 1 0
BITMAP
0005ADEFEB8300
02CB5210137C00
1D500000000000
88000000000000
C3000000000000
E1000000000000
C300001FFFFF40
89000000000B40
1E600000000B40
03DB5210124C40
0006ADFFEDA710
ENDCHAR
STARTCHAR H
ENCODING 72
SWIDTH 949 0
DWIDTH 15 0
BBX 13 11 1 0
BITMAP
3C000000000960
3C000000000960
3C000000000960
3C000000000960
3C000000000960
3FFFFFFFFFFF60
3C000000000960
3C000000000960
3C000000000960
3C000000000960
3C000000000960
ENDCHAR
STARTCHAR I
ENCODING 73
SWIDTH 287 0
DWIDTH 5 0
BBX 2 11 1 0
BITMAP
3C
3C
3C
3C
3C
3C
3C
3C
3C
3C
3C
ENDCHAR
STARTCHAR J
ENCODING 74
SWIDTH 590 0
DWIDTH 9 0
BBX 8 11 0 0
BITMAP
0000004B
0000004B
0000004B
0000004B
0000004B
0000004B
0000004B
0000005A
00000098
B51028D1
4AEFD920
ENDCHAR
STARTCHAR K
ENCODING 75
SWIDTH 806 0
DWIDTH 13 0
BBX 12 11 1 0
BITMAP
3C0000003B70
3C000008B200
3C0003C70000
3C019C200000
3C4D70000000
3DDA10000000
3C19D3000000
3C004D800000
3C00019C3000
3C000005D700
3C0000001AB2
ENDCHAR
STARTCHAR L
ENCODING 76
SWIDTH 701 0
DWIDTH 11 0
BBX 10 11 1 0
BITMAP
3C00000000
3C00000000
3C00000000
3C00000000
3C00000000
3C00000000
3C00000000
3C00000000
3C00000000
3C00000000
3FFFFFFFF9
ENDCHAR
STARTCHAR M
ENCODING 77
SWIDTH 1139 0
DWIDTH 18 0
BBX 16 11 1 0
BITMAP
3F300000000001D6
3EC00000000008E6
3CA7000000003D96
3C1D20000000C486
3C06A0000006A086
3C00B500002D1086
3C002D1000A60086
3C00089004B00086
3C0000D31D200086
3C00004C88000086
3C000009D0000086
ENDCHAR
STARTCHAR N
ENCODING 78
SWIDTH 936 0
DWIDTH 15 0
BBX 13 11 1 0
BITMAP
3F600000000C30
3DD50000000C30
3C2D4000000C30
3C03D400000C30
3C003D40000C30
3C0003D3000C30
3C00004D300C30
3C000004D20C30
3C0000005D2C30
3C00000005DD30
3C000000006F30
ENDCHAR
STARTCHAR O
ENCODING 79
SWIDTH 983 0
DWIDTH 16 0
BBX 14 11 1 0
BITMAP
0006BDFEDA5000
03DA410125BC10
2D4000000007C0
880000000000B5
C3000000000069
E100000000005A
D3000000000069
980000000000B5
2E4000000007C0
03D9410025BC10
0017BEFFDA5000
ENDCHAR
STARTCHAR P
ENCODING 80
SWIDTH 818 0
DWIDTH 13 0
BBX 12 11 1 0
BITMAP
3FFFFFFEC710
3C0000013AB0
3C00000000D2
3C00000000C4
3C00000000E2
3C0000003AB0
3FFFFFFEC710
3C0000000000
3C0000000000
3C0000000000
3C0000000000
ENDCHAR
STARTCHAR Q
ENCODING 81
SWIDTH 983 0
DWIDTH 16 0
BBX 15 11 1 0
BITMAP
0006BDFEDA500000
03DA410125BC1000
2D4000000007C000
880000000000B500
C300000000006900
E100000000005A00
D300000000006900
980000000000B500
2E400001C727C000
03D941015CFF7300
0017BEFEDA448C70
ENDCHAR
STARTCHAR R
ENCODING 82
SWIDTH 833 0
DWIDTH 13 0
BBX 12 11 1 0
BITMAP
3FFFFFFEB500
3C0000025D50
3C00000006B0
3C00000006A0
3C0000014D50
3FFFFFFFB500
3C0000098000
3C000001D400
3C0000003D10
3C00000008A0
3C00000000C6
ENDCHAR
STARTCHAR S
ENCODING 83
SWIDTH 787 0
DWIDTH 13 0
BBX 11 11 1 0
BITMAP
03ADEFDA5100
4E6210149600
A60000000000
7A1000000000
08D941000000
00159DC72000
00000016C700
000000001C30
000000000B40
884210149C10
16BDFFEC7100
ENDCHAR
STARTCHAR T
ENCODING 84
SWIDTH 708 0
DWIDTH 11 0
BBX 12 11 0 0
BITMAP
AFFFFFFFFFF1
00000C200000
00000C200000
00000C200000
00000C200000
00000C200000
00000C200000
00000C200000
00000C200000
00000C200000
00000C200000
ENDCHAR
STARTCHAR U
ENCODING 85
SWIDTH 891 0
DWIDTH 14 0
BBX 12 11 1 0
BITMAP
4A0000000068
4A0000000068
4A0000000068
4A0000000068
4A0000000068
4A0000000068
4A0000000068
4B0000000078
1E20000000C5
07E720125CB0
004ADFFEB600
ENDCHAR
STARTCHAR V
ENCODING 86
SWIDTH 817 0
DWIDTH 13 0
BBX 13 11 0 0
BITMAP
5C000000000A60
0C400000002D00
05B0000000A600
00D3000002D000
006B0000097000
000D30002D1000
0006A000970000
0000D302D10000
00006A08700000
00000D4D100000
000007E7000000
ENDCHAR
STARTCHAR W
ENCODING 87
SWIDTH 1266 0
DWIDTH 20 0
BBX 20 11 0 0
BITMAP
3D0000000BE000000097
0C4000002EB5000001E1
06A00000795B000006A0
01E10000D30E20000C40
00A70003C00970003D00
004C00097003D0008800
000D300E1000C300E200
0007905A00007905B000
0001E1B500001E0B5000
0000A7E000000A7E0000
00004F80000004F80000
ENDCHAR
STARTCHAR X
ENCODING 88
SWIDTH 821 0
DWIDTH 13 0
BBX 13 11 0 0
BITMAP
08A00000007B00
0099000006B100
000A80005C1000
0000B705D10000
00001C8D200000
000004F7000000
00002D4D400000
0002D402D30000
001D40003D3000
01C5000003D200
1C600000004D20
ENDCHAR
STARTCHAR Y
ENCODING 89
SWIDTH 763 0
DWIDTH 12 0
BBX 12 11 0 0
BITMAP
2D30000001D4
04D100000B70
007B00008A00
000A8004C100
0001C52D2000
00002DC40000
000006A00000
000006900000
000006900000
000006900000
000006900000
ENDCHAR
STARTCHAR Z
ENCODING 90
SWIDTH 728 0
DWIDTH 12 0
BBX 10 11 1 0
BITMAP
AFFFFFFFF6
00000007A0
0000005C00
000003D100
00002D3000
0001C40000
000B600000
0098000000
07B0000000
5C10000000
DFFFFFFFF9
ENDCHAR
STARTCHAR bracketleft
ENCODING 91
SWIDTH 409 0
DWIDTH 7 0
BBX 4 13 2 -1
BITMAP
FFFB
F000
F000
F000
F000
F000
F000
F000
F000
F000
F000
F000
FFFB
ENDCHAR
STARTCHAR backslash
ENCODING 92
SWIDTH 500 0
DWIDTH 8 0
BBX 6 11 1 0
BITMAP
C10000
680000
0D1000
068000
00D100
007700
001D10
000870
0001D0
000086
00001C
ENDCHAR
STARTCHAR bracketright
ENCODING 93
SWIDTH 409 0
DWIDTH 7 0
BBX 5 13 0 -1
BITMAP
3FFF80
000780
000780
000780
000780
000780
000780
000780
000780
000780
000780
000780
3FFF80
ENDCHAR
STARTCHAR asciicircum
ENCODING 94
SWIDTH 459 0
DWIDTH 7 0
BBX 7 5 0 6
BITMAP
002E7000
00A5D100
03C06800
0B400D20
4C000690
ENDCHAR
STARTCHAR underscore
ENCODING 95
SWIDTH 500 0
DWIDTH 8 0
BBX 8 1 0 -2
BITMAP
FFFFFFFF
ENDCHAR
STARTCHAR grave
ENCODING 96
SWIDTH 527 0
DWIDTH 8 0
BBX 5 2 1 9
BITMAP
4B4000
027A10
ENDCHAR
STARTCHAR a
ENCODING 97
SWIDTH 888 0
DWIDTH 14 0
BBX 12 11 1 0
BITMAP
027BEFEDA500
0C7310025BA0
0000000000B4
000000000077
0001589BDEF8
04CEA8542178
7D4000000078
E20000000078
E20000000098
8D5200258DD8
06BEFEDA6178
ENDCHAR
STARTCHAR b
ENCODING 98
SWIDTH 836 0
DWIDTH 13 0
BBX 12 11 1 0
BITMAP
3FFFFFFEC600
3C0000014C50
3C0000000590
3C0000000590
3C0000014C30
3FFFFFFFE700
3C00000138D1
3C00000000B5
3C00000000A6
3C00000016E2
3FFFFFFFEA30
ENDCHAR
STARTCHAR c
ENCODING 99
SWIDTH 869 0
DWIDTH 14 0
BBX 12 11 1 0
BITMAP
0006ADFFDB72
02DA5200148A
1D4000000000
880000000000
C30000000000
E10000000000
C30000000000
880000000000
1D4000000000
03DA5200147A
0006ADFFEB72
ENDCHAR
STARTCHAR d
ENCODING 100
SWIDTH 910 0
DWIDTH 15 0
BBX 13 11 1 0
BITMAP
3FFFFFFEC71000
3C0000014AD300
3C000000006D00
3C000000000D40
3C000000000970
3C000000000880
3C000000000960
3C000000000C40
3C000000006C00
3C00000249D200
3FFFFFFEC71000
ENDCHAR
STARTCHAR e
ENCODING 101
SWIDTH 910 0
DWIDTH 15 0
BBX 13 11 1 0
BITMAP
0017BEFEB50000
03DA41014BB100
1D500000007A00
88000000000C20
C3000000000860
EFFFFFFFFFFF70
D2000000000000
88000000000000
1D400000000000
03DA5200148800
0016BDFFEB6100
ENDCHAR
STARTCHAR f
ENCODING 102
SWIDTH 817 0
DWIDTH 13 0
BBX 12 11 1 0
BITMAP
005ADFFFFFF2
07D620000000
1E2000000000
3C0000000000
3C0000000000
3FFFFFFFFFE0
3C0000000000
3C0000000000
3C0000000000
3C0000000000
3C0000000000
ENDCHAR
STARTCHAR g
ENCODING 103
SWIDTH 910 0
DWIDTH 15 0
BBX 13 11 1 0
BITMAP
0005ADEFEB8300
02CB5210137C00
1D500000000000
88000000000000
C3000000000000
E1000000000000
C300001FFFFF40
89000000000B40
1E600000000B40
03DB5210124C40
0006ADFFEDA710
ENDCHAR
STARTCHAR h
ENCODING 104
SWIDTH 949 0
DWIDTH 15 0
BBX 13 11 1 0
BITMAP
3C000000000960
3C000000000960
3C000000000960
3C000000000960
3C000000000960
3FFFFFFFFFFF60
3C000000000960
3C000000000960
3C000000000960
3C000000000960
3C000000000960
ENDCHAR
STARTCHAR i
ENCODING 105
SWIDTH 287 0
DWIDTH 5 0
BBX 2 11 1 0
BITMAP
3C
3C
3C
3C
3C
3C
3C
3C
3C
3C
3C
ENDCHAR
STARTCHAR j
ENCODING 106
SWIDTH 590 0
DWIDTH 9 0
BBX 8 11 0 0
BITMAP
0000004B
0000004B
0000004B
0000004B
0000004B
0000004B
0000004B
0000005A
00000098
B51028D1
4AEFD920
ENDCHAR
STARTCHAR k
ENCODING 107
SWIDTH 867 0
DWIDTH 14 0
BBX 12 11 1 0
BITMAP
3C00000000E1
3C00000004C0
3C0000001D50
3C000003D700
3C0025AC4000
3FFFFFB30000
3C00137CC300
3C0000005E40
3C00000003E1
3C0000000088
3C000000003C
ENDCHAR
STARTCHAR l
ENCODING 108
SWIDTH 709 0
DWIDTH 11 0
BBX 11 11 1 0
BITMAP
3C0000000000
3C0000000000
3C0000000000
3C0000000000
3C0000000000
3C0000000000
3C0000000000
2C0000000000
1E1000000000
0BA310000000
019DFFFFFF30
ENDCHAR
STARTCHAR m
ENCODING 109
SWIDTH 1246 0
DWIDTH 20 0
BBX 18 11 1 0
BITMAP
3C05BEE91018DFD700
3CAB4129C5D7213B80
3F700000CC200001E1
3C00000096000000D3
3C00000087000000C3
3C00000087000000C3
3C00000087000000C3
3C00000087000000C3
3C00000087000000C3
3C00000087000000C3
3C00000087000000C3
ENDCHAR
STARTCHAR n
ENCODING 110
SWIDTH 933 0
DWIDTH 15 0
BBX 13 11 1 0
BITMAP
3C0049DEEC6000
3C4CB62114C800
3FC30000002E00
3D000000000D20
3C000000000C30
3C000000000C30
3C000000000C30
3C000000000C30
3C000000000C30
3C000000000C30
3C000000000C30
ENDCHAR
STARTCHAR o
ENCODING 111
SWIDTH 983 0
DWIDTH 16 0
BBX 14 11 1 0
BITMAP
0006BDFEDA5000
03DA410125BC10
2D4000000007C0
880000000000B5
C3000000000069
E100000000005A
D3000000000069
980000000000B5
2E4000000007C0
03D9410025BC10
0017BEFFDA5000
ENDCHAR
STARTCHAR p
ENCODING 112
SWIDTH 818 0
DWIDTH 13 0
BBX 12 11 1 0
BITMAP
3FFFFFFEC710
3C0000013AB0
3C00000000D2
3C00000000C4
3C00000000E2
3C0000003AB0
3FFFFFFEC710
3C0000000000
3C0000000000
3C0000000000
3C0000000000
ENDCHAR
STARTCHAR q
ENCODING 113
SWIDTH 983 0
DWIDTH 16 0
BBX 15 11 1 0
BITMAP
0006BDFEDA500000
03DA410125BC1000
2D4000000007C000
880000000000B500
C300000000006900
E100000000005A00
D300000000006900
980000000000B500
2E4000000007C000
03D9410025BF6200
0017BEFEDA56AD60
ENDCHAR
STARTCHAR r
ENCODING 114
SWIDTH 609 0
DWIDTH 10 0
BBX 9 11 1 0
BITMAP
3C006BEFA0
3C3C941020
3EC3000000
3E10000000
3C00000000
3C00000000
3C00000000
3C00000000
3C00000000
3C00000000
3C00000000
ENDCHAR
STARTCHAR s
ENCODING 115
SWIDTH 787 0
DWIDTH 13 0
BBX 11 11 1 0
BITMAP
03ADEFDA5100
4E6210149600
A60000000000
7A1000000000
08D941000000
00159DC72000
00000016C700
000000001C30
000000000B40
884210149C10
16BDFFEC7100
ENDCHAR
STARTCHAR t
ENCODING 116
SWIDTH 708 0
DWIDTH 11 0
BBX 12 11 0 0
BITMAP
AFFFFFFFFFF1
00000C200000
00000C200000
00000C200000
00000C200000
00000C200000
00000C200000
00000C200000
00000C200000
00000C200000
00000C200000
ENDCHAR
STARTCHAR u
ENCODING 117
SWIDTH 931 0
DWIDTH 15 0
BBX 13 11 1 0
BITMAP
4B000000000E10
4B000000000E10
4B000000000E10
4B000000000E10
4B000000000E10
4B000000000E10
4B000000000E10
3C000000001E10
1E10000004DF10
08B31126CC3E10
006CEED9400E10
ENDCHAR
STARTCHAR v
ENCODING 118
SWIDTH 817 0
DWIDTH 13 0
BBX 13 11 0 0
BITMAP
5C000000000A60
0C400000002D00
05B0000000A600
00D3000002D000
006B0000097000
000D30002D1000
0006A000970000
0000D302D10000
00006A08700000
00000D4D100000
000007E7000000
ENDCHAR
STARTCHAR w
ENCODING 119
SWIDTH 1266 0
DWIDTH 20 0
BBX 20 11 0 0
BITMAP
3D0000000BE000000097
0C4000002EB5000001E1
06A00000795B000006A0
01E10000D30E20000C40
00A70003C00970003D00
004C00097003D0008800
000D300E1000C300E200
0007905A00007905B000
0001E1B500001E0B5000
0000A7E000000A7E0000
00004F80000004F80000
ENDCHAR
STARTCHAR x
ENCODING 120
SWIDTH 821 0
DWIDTH 13 0
BBX 13 11 0 0
BITMAP
08A00000007B00
0099000006B100
000A80005C1000
0000B705D10000
00001C8D200000
000004F7000000
00002D4D400000
0002D402D30000
001D40003D3000
01C5000003D200
1C600000004D20
ENDCHAR
STARTCHAR y
ENCODING 121
SWIDTH 911 0
DWIDTH 15 0
BBX 12 11 1 0
BITMAP
87000000003C
87000000003C
87000000003C
79000000007C
3E10000007DC
08D51025BB4C
005BEFDA403B
00000000006A
0000000002E5
795210248E80
16ADEFDC9300
ENDCHAR
STARTCHAR z
ENCODING 122
SWIDTH 728 0
DWIDTH 12 0
BBX 10 11 1 0
BITMAP
AFFFFFFFF6
00000007A0
0000005C00
000003D100
00002D3000
0001C40000
000B600000
0098000000
07B0000000
5C10000000
DFFFFFFFF9
ENDCHAR
STARTCHAR braceleft
ENCODING 123
SWIDTH 386 0
DWIDTH 6 0
BBX 6 13 0 -1
BITMAP
002BF6
008800
00A400
00B400
00B300
03D000
8F5000
03D000
00B300
00B400
00A400
008800
002CF6
ENDCHAR
STARTCHAR bar
ENCODING 124
SWIDTH 259 0
DWIDTH 4 0
BBX 2 16 1 -4
BITMAP
68
68
68
68
68
68
68
68
68
68
68
68
68
68
68
68
ENDCHAR
STARTCHAR braceright
ENCODING 125
SWIDTH 386 0
DWIDTH 6 0
BBX 6 13 0 -1
BITMAP
3FC300
005B00
001D00
001E00
000E00
000C40
0003EB
000B50
000E00
001E00
001D00
005B00
3FD300
ENDCHAR
STARTCHAR asciitilde
ENCODING 126
SWIDTH 634 0
DWIDTH 10 0
BBX 8 2 1 5
BITMAP
4DEA5118
7215AEE6
ENDCHAR
STARTCHAR nonbreakingspace
ENCODING 160
SWIDTH 375 0
DWIDTH 6 0
BBX 1 1 0 0
BITMAP
00
ENDCHAR
STARTCHAR exclamdown
ENCODING 161
SWIDTH 274 0
DWIDTH 4 0
BBX 2 11 1 0
BITMAP
6C
6C
00
28
39
3A
4A
5B
5B
6C
6C
ENDCHAR
STARTCHAR cent
ENCODING 162
SWIDTH 736 0
DWIDTH 12 0
BBX 11 13 0 -1
BITMAP
000000D00000
0005ADFEC930
00AD52D126C0
08B000D00000
0E2000D00000
2E0000D00000
2E0000D00000
0E2000D00000
08B000D00000
00BD52D126B0
0005BEFED930
000000D00000
000000D00000
ENDCHAR
STARTCHAR sterling
ENCODING 163
SWIDTH 792 0
DWIDTH 13 0
BBX 11 11 1 0
BITMAP
00029DFEB400
001D72014A10
007900000000
00A500000000
00B400000000
FFFFFFFF6000
00B400000000
00B400000000
00E200000000
2AD000000000
FFFFFFFFFFB0
ENDCHAR
STARTCHAR currency
ENCODING 164
SWIDTH 560 0
DWIDTH 9 0
BBX 7 8 1 1
BITMAP
60000060
7BCECB70
1E515E10
58000840
58000840
1D414D10
8ACEBB70
60000060
ENDCHAR
STARTCHAR yen
ENCODING 165
SWIDTH 811 0
DWIDTH 13 0
BBX 11 11 1 0
BITMAP
A800000008A0
1D4000004D10
03D20002D300
006B000C6000
000A808A0000
8FFFF8FFFF80
00003F200000
8FFFFFFFFF80
00000F000000
00000F000000
00000F000000
ENDCHAR
STARTCHAR brokenbar
ENCODING 166
SWIDTH 259 0
DWIDTH 4 0
BBX 2 14 1 -3
BITMAP
68
68
68
68
68
68
00
00
68
68
68
68
68
68
ENDCHAR
STARTCHAR section
ENCODING 167
SWIDTH 500 0
DWIDTH 8 0
BBX 6 11 1 0
BITMAP
1AED30
7A11A1
5B1013
2DD710
C217D5
E2002E
5D613D
018DD2
0001B5
7511A7
2AEE91
ENDCHAR
STARTCHAR dieresis
ENCODING 168
SWIDTH 527 0
DWIDTH 8 0
BBX 5 1 2 9
BITMAP
E40C60
ENDCHAR
STARTCHAR copyright
ENCODING 169
SWIDTH 770 0
DWIDTH 12 0
BBX 12 11 0 0
BITMAP
0004AEEC6000
007C5113AB10
04B17DEA1690
0B16B21560A2
1A0C20000056
390D00000038
1A0C20000056
0B16B21560A2
04B17DEA1690
007D5103AB10
0004BEEC6000
ENDCHAR
STARTCHAR ordfeminine
ENCODING 170
SWIDTH 497 0
DWIDTH 8 0
BBX 8 8 0 3
BITMAP
0EFFEB40
000013D0
038BDEF1
4C6321C1
791026E1
1AEFEAD1
00000000
4FFFFFF1
ENDCHAR
STARTCHAR guillemotleft
ENCODING 171
SWIDTH 440 0
DWIDTH 7 0
BBX 7 5 0 3
BITMAP
00941B20
0A81B600
5C07A000
0A81B600
00941B20
ENDCHAR
STARTCHAR logicalnot
ENCODING 172
SWIDTH 634 0
DWIDTH 10 0
BBX 8 4 1 3
BITMAP
AFFFFFFC
0000000C
0000000C
0000000C
ENDCHAR
STARTCHAR uni00AD
ENCODING 173
SWIDTH 540 0
DWIDTH 9 0
BBX 7 1 1 5
BITMAP
BFFFFF50
ENDCHAR
STARTCHAR registered
ENCODING 174
SWIDTH 600 0
DWIDTH 10 0
BBX 9 8 0 3
BITMAP
003BFE8100
03C4127B00
0B1CFD3660
190B068090
190CFE30A0
0B1B066660
04C4127B00
003BFE8100
ENDCHAR
STARTCHAR macron
ENCODING 175
SWIDTH 527 0
DWIDTH 8 0
BBX 5 1 2 9
BITMAP
EFFF60
ENDCHAR
STARTCHAR degree
ENCODING 176
SWIDTH 373 0
DWIDTH 6 0
BBX 4 4 1 7
BITMAP
4DD4
C22C
C22C
4DD4
ENDCHAR
STARTCHAR plusminus
ENCODING 177
SWIDTH 634 0
DWIDTH 10 0
BBX 8 9 1 1
BITMAP
00058000
00058000
00058000
AFFFFFFC
00058000
00058000
00058000
00000000
AFFFFFFC
ENDCHAR
STARTCHAR twosuperior
ENCODING 178
SWIDTH 511 0
DWIDTH 8 0
BBX 8 7 0 4
BITMAP
17DFEA30
582016E1
000000C2
00000780
0004A500
04A60000
6FFFFFF4
ENDCHAR
STARTCHAR threesuperior
ENCODING 179
SWIDTH 512 0
DWIDTH 8 0
BBX 8 7 0 4
BITMAP
5FFFEA20
000016C0
00002890
005FFA10
000125C1
000015E1
7FFFEB40
ENDCHAR
STARTCHAR acute
ENCODING 180
SWIDTH 527 0
DWIDTH 8 0
BBX 4 2 3 9
BITMAP
018A
6940
ENDCHAR
STARTCHAR micro
ENCODING 181
SWIDTH 705 0
DWIDTH 11 0
BBX 10 10 0 -3
BITMAP
008700004A
00B4000087
00E10000B4
02C00000E1
05B00007D0
08E5129AC0
0B4BFC50E0
0E00000000
2C00000000
6900000000
ENDCHAR
STARTCHAR paragraph
ENCODING 182
SWIDTH 585 0
DWIDTH 9 0
BBX 7 11 1 0
BITMAP
07DFFF70
9FFF4470
FFFF4470
FFFF4470
9FFF4470
07DF4470
00074470
00074470
00074470
00074470
00074470
ENDCHAR
STARTCHAR periodcentered
ENCODING 183
SWIDTH 185 0
DWIDTH 3 0
BBX 3 2 0 5
BITMAP
3F20
3F20
ENDCHAR
STARTCHAR cedilla
ENCODING 184
SWIDTH 527 0
DWIDTH 8 0
BBX 4 3 2 -3
BITMAP
04F9
001D
8FE8
ENDCHAR
STARTCHAR onesuperior
ENCODING 185
SWIDTH 261 0
DWIDTH 4 0
BBX 3 7 0 4
BITMAP
DFB0
02B0
02B0
02B0
02B0
02B0
02B0
ENDCHAR
STARTCHAR ordmasculine
ENCODING 186
SWIDTH 520 0
DWIDTH 8 0
BBX 8 8 0 3
BITMAP
02AEEC50
2D5113C5
7700002C
7700002C
2D5113C5
03AEEC50
00000000
2FFFFFF7
ENDCHAR
STARTCHAR guillemotright
ENCODING 187
SWIDTH 440 0
DWIDTH 7 0
BBX 7 5 0 3
BITMAP
2B13A000
05C17B10
00980B60
05C17B10
2B13A000
ENDCHAR
STARTCHAR onequarter
ENCODING 188
SWIDTH 857 0
DWIDTH 14 0
BBX 13 11 0 0
BITMAP
AFD00000088000
00D000005B0000
00D00002C10000
00D0001C300000
00D000A6000000
00D0079004E600
00004C003B8600
0001C203C17600
000B402C207600
0088008FFFFFE0
05B00000007600
ENDCHAR
STARTCHAR onehalf
ENCODING 189
SWIDTH 937 0
DWIDTH 15 0
BBX 14 11 0 0
BITMAP
AFD00000088000
00D000005B0000
00D00002C10000
00D0001C300000
00D000A6000000
00D00790BFFEA1
00004C00000199
0001C200000067
000B4000000790
00880000169300
05B00000BFFFFB
ENDCHAR
STARTCHAR threequarters
ENCODING 190
SWIDTH 978 0
DWIDTH 16 0
BBX 15 11 0 0
BITMAP
1FFFD70000096000
00014D0000690000
007FD40003C10000
00014D101C200000
00003D20B5000000
3FFFD6088004E500
0000004B004A8500
000002C103B18500
00001C303C108500
000096009FFFFFD0
0006A00000008500
ENDCHAR
STARTCHAR questiondown
ENCODING 191
SWIDTH 568 0
DWIDTH 9 0
BBX 8 11 1 0
BITMAP
00009900
00009900
00000000
00000000
00005900
0028D800
1AB51000
97000000
D3000000
8C410392
06CEFC50
ENDCHAR
STARTCHAR Agrave
ENCODING 192
SWIDTH 812 0
DWIDTH 13 0
BBX 13 14 0 0
BITMAP
0001C610000000
000016A4000000
00000000000000
000005F5000000
00000C6D000000
00005B0A600000
0000C302D00000
0005A000960000
000D20002D0000
00690000096000
00DFFFFFFFD000
06900000009600
0D200000002D10
6A000000000970
ENDCHAR
STARTCHAR Aacute
ENCODING 193
SWIDTH 812 0
DWIDTH 13 0
BBX 13 14 0 0
BITMAP
00000006C10000
000003A6100000
00000000000000
000005F5000000
00000C6D000000
00005B0A600000
0000C302D00000
0005A000960000
000D20002D0000
00690000096000
00DFFFFFFFD000
06900000009600
0D200000002D10
6A000000000970
ENDCHAR
STARTCHAR Acircumflex
ENCODING 194
SWIDTH 812 0
DWIDTH 13 0
BBX 13 14 0 0
BITMAP
000018D8100000
0004B626B40000
00000000000000
000005F5000000
00000C6D000000
00005B0A600000
0000C302D00000
0005A000960000
000D20002D0000
00690000096000
00DFFFFFFFD000
06900000009600
0D200000002D10
6A000000000970
ENDCHAR
STARTCHAR Atilde
ENCODING 195
SWIDTH 812 0
DWIDTH 13 0
BBX 13 14 0 0
BITMAP
0000AE82930000
0002A18EB00000
00000000000000
000005F5000000
00000C6D000000
00005B0A600000
0000C302D00000
0005A000960000
000D20002D0000
00690000096000
00DFFFFFFFD000
06900000009600
0D200000002D10
6A000000000970
ENDCHAR
STARTCHAR Adieresis
ENCODING 196
SWIDTH 812 0
DWIDTH 13 0
BBX 13 13 0 0
BITMAP
00009807A00000
00000000000000
000005F5000000
00000C6D000000
00005B0A600000
0000C302D00000
0005A000960000
000D20002D0000
00690000096000
00DFFFFFFFD000
06900000009600
0D200000002D10
6A000000000970
ENDCHAR
STARTCHAR Aring
ENCODING 197
SWIDTH 812 0
DWIDTH 13 0
BBX 13 15 0 0
BITMAP
00002CFC200000
00007807800000
00002CFC200000
00000000000000
000005F5000000
00000C6D000000
00005B0A600000
0000C302D00000
0005A000960000
000D20002D0000
00690000096000
00DFFFFFFFD000
06900000009600
0D200000002D10
6A000000000970
ENDCHAR
STARTCHAR AE
ENCODING 198
SWIDTH 1172 0
DWIDTH 19 0
BBX 18 11 0 0
BITMAP
0000002EFFFFFFFFF7
000000B68800000000
000006B08800000000
00002D208800000000
0000B6008800000000
0006B0008FFFFFFFF1
001D20008800000000
00AFFFFFF800000000
05C000008800000000
1E3000008800000000
A90000008FFFFFFFF8
ENDCHAR
STARTCHAR Ccedilla
ENCODING 199
SWIDTH 869 0
DWIDTH 14 0
BBX 12 14 1 -3
BITMAP
0006ADFFDB72
02DA5200148A
1D4000000000
880000000000
C30000000000
E10000000000
C30000000000
880000000000
1D4000000000
03DA5200147A
0006AEFFEB72
000002FB0000
0000001C3000
00005FFA0000
ENDCHAR
STARTCHAR Egrave
ENCODING 200
SWIDTH 754 0
DWIDTH 12 0
BBX 10 14 1 0
BITMAP
005A400000
00027A1000
0000000000
3FFFFFFFFB
3D00000000
3D00000000
3D00000000
3D00000000
3FFFFFFFF5
3D00000000
3D00000000
3D00000000
3D00000000
3FFFFFFFFD
ENDCHAR
STARTCHAR Eacute
ENCODING 201
SWIDTH 754 0
DWIDTH 12 0
BBX 10 14 1 0
BITMAP
0000028A00
0000694000
0000000000
3FFFFFFFFB
3D00000000
3D00000000
3D00000000
3D00000000
3FFFFFFFF5
3D00000000
3D00000000
3D00000000
3D00000000
3FFFFFFFFD
ENDCHAR
STARTCHAR Ecircumflex
ENCODING 202
SWIDTH 754 0
DWIDTH 12 0
BBX 10 14 1 0
BITMAP
0003AD6000
007A427B10
0000000000
3FFFFFFFFB
3D00000000
3D00000000
3D00000000
3D00000000
3FFFFFFFF5
3D00000000
3D00000000
3D00000000
3D00000000
3FFFFFFFFD
ENDCHAR
STARTCHAR Edieresis
ENCODING 203
SWIDTH 754 0
DWIDTH 12 0
BBX 10 13 1 0
BITMAP
000E30C500
0000000000
3FFFFFFFFB
3D00000000
3D00000000
3D00000000
3D00000000
3FFFFFFFF5
3D00000000
3D00000000
3D00000000
3D00000000
3FFFFFFFFD
ENDCHAR
STARTCHAR Igrave
ENCODING 204
SWIDTH 287 0
DWIDTH 5 0
BBX 5 14 -1 0
BITMAP
4B5000
017A10
000000
003C00
003C00
003C00
003C00
003C00
003C00
003C00
003C00
003C00
003C00
003C00
ENDCHAR
STARTCHAR Iacute
ENCODING 205
SWIDTH 287 0
DWIDTH 5 0
BBX 4 14 1 0
BITMAP
017B
5A50
0000
3C00
3C00
3C00
3C00
3C00
3C00
3C00
3C00
3C00
3C00
3C00
ENDCHAR
STARTCHAR Icircumflex
ENCODING 206
SWIDTH 287 0
DWIDTH 5 0
BBX 7 14 -1 0
BITMAP
029D6100
6A527B20
00000000
003C0000
003C0000
003C0000
003C0000
003C0000
003C0000
003C0000
003C0000
003C0000
003C0000
003C0000
ENDCHAR
STARTCHAR Idieresis
ENCODING 207
SWIDTH 287 0
DWIDTH 5 0
BBX 5 13 0 0
BITMAP
D40B70
000000
03C000
03C000
03C000
03C000
03C000
03C000
03C000
03C000
03C000
03C000
03C000
ENDCHAR
STARTCHAR Eth
ENCODING 208
SWIDTH 910 0
DWIDTH 15 0
BBX 14 11 0 0
BITMAP
03FFFFFEDB6100
03C0000126BE30
03C000000008D0
03C000000000D4
03C00000000097
BFFFFFF3000088
03C00000000087
03C000000000D4
03C000000007D0
03C0000124AD20
03FFFFFEDB6100
ENDCHAR
STARTCHAR Ntilde
ENCODING 209
SWIDTH 936 0
DWIDTH 15 0
BBX 13 14 1 0
BITMAP
0000AE81A30000
0003929EA00000
00000000000000
3F600000000C30
3DD50000000C30
3C2D4000000C30
3C03D400000C30
3C003D40000C30
3C0003D3000C30
3C00004D300C30
3C000004D20C30
3C0000005D2C30
3C00000005DD30
3C000000006F30
ENDCHAR
STARTCHAR Ograve
ENCODING 210
SWIDTH 983 0
DWIDTH 16 0
BBX 14 14 1 0
BITMAP
00009920000000
00000398000000
00000000000000
0006BDFEDA5000
03DA410125BC10
2D4000000007C0
880000000000B5
C3000000000069
E100000000005A
D3000000000069
980000000000B5
2E4000000007C0
03D9410025BC10
0017BEFFDA5000
ENDCHAR
STARTCHAR Oacute
ENCODING 211
SWIDTH 983 0
DWIDTH 16 0
BBX 14 14 1 0
BITMAP
00000003A60000
00000098200000
00000000000000
0006BDFEDA5000
03DA410125BC10
2D4000000007C0
880000000000B5
C3000000000069
E100000000005A
D3000000000069
980000000000B5
2E4000000007C0
03D9410025BC10
0017BEFFDA5000
ENDCHAR
STARTCHAR Ocircumflex
ENCODING 212
SWIDTH 983 0
DWIDTH 16 0
BBX 14 14 1 0
BITMAP
000005CB400000
0000B834990000
00000000000000
0006BDFEDA5000
03DA410125BC10
2D4000000007C0
880000000000B5
C3000000000069
E100000000005A
D3000000000069
980000000000B5
2E4000000007C0
03D9410025BC10
0017BEFFDA5000
ENDCHAR
STARTCHAR Otilde
ENCODING 213
SWIDTH 983 0
DWIDTH 16 0
BBX 14 14 1 0
BITMAP
00005EB4490000
0000B25CE30000
00000000000000
0006BDFEDA5000
03DA410125BC10
2D4000000007C0
880000000000B5
C3000000000069
E100000000005A
D3000000000069
980000000000B5
2E4000000007C0
03D9410025BC10
0017BEFFDA5000
ENDCHAR
STARTCHAR Odieresis
ENCODING 214
SWIDTH 983 0
DWIDTH 16 0
BBX 14 13 1 0
BITMAP
00004E02F10000
00000000000000
0006BDFEDA5000
03DA410125BC10
2D4000000007C0
880000000000B5
C3000000000069
E100000000005A
D3000000000069
980000000000B5
2E4000000007C0
03D9410025BC10
0017BEFFDA5000
ENDCHAR
STARTCHAR multiply
ENCODING 215
SWIDTH 634 0
DWIDTH 10 0
BBX 8 7 1 2
BITMAP
1B1000A2
06B00980
007B9900
000BD000
007B9900
06B10A80
1B1000A2
ENDCHAR
STARTCHAR Oslash
ENCODING 216
SWIDTH 983 0
DWIDTH 16 0
BBX 14 13 1 -1
BITMAP
00000000003B10
0006BDFEDAD200
03DA41012CCC10
2D4000005907C0
88000002C100C5
C300001C300078
E100009600005A
C30005A0000069
88002C100000B5
2E40C3000007C0
04DC910025BC10
005CBDFFDA5000
02C10000000000
ENDCHAR
STARTCHAR Ugrave
ENCODING 217
SWIDTH 891 0
DWIDTH 14 0
BBX 12 14 1 0
BITMAP
0005A4000000
000028A00000
000000000000
4A0000000068
4A0000000068
4A0000000068
4A0000000068
4A0000000068
4A0000000068
4A0000000068
4B0000000078
1E20000000C5
07E720125CB0
004ADFFEB600
ENDCHAR
STARTCHAR Uacute
ENCODING 218
SWIDTH 891 0
DWIDTH 14 0
BBX 12 14 1 0
BITMAP
000000289000
000007940000
000000000000
4A0000000068
4A0000000068
4A0000000068
4A0000000068
4A0000000068
4A0000000068
4A0000000068
4B0000000078
1E20000000C5
07E720125CB0
004ADFFEB600
ENDCHAR
STARTCHAR Ucircumflex
ENCODING 219
SWIDTH 891 0
DWIDTH 14 0
BBX 12 14 1 0
BITMAP
00003AC50000
00089428B000
000000000000
4A0000000068
4A0000000068
4A0000000068
4A0000000068
4A0000000068
4A0000000068
4A0000000068
4B0000000078
1E20000000C5
07E720125CB0
004ADFFEB600
ENDCHAR
STARTCHAR Udieresis
ENCODING 220
SWIDTH 891 0
DWIDTH 14 0
BBX 12 13 1 0
BITMAP
0000F20D4000
000000000000
4A0000000068
4A0000000068
4A0000000068
4A0000000068
4A0000000068
4A0000000068
4A0000000068
4B0000000078
1E20000000C5
07E720125CB0
004ADFFEB600
ENDCHAR
STARTCHAR Yacute
ENCODING 221
SWIDTH 763 0
DWIDTH 12 0
BBX 12 14 0 0
BITMAP
000000299000
000007940000
000000000000
2D30000001D4
04D100000B70
007B00008A00
000A8004C100
0001C52D2000
00002DC40000
000006A00000
000006900000
000006900000
000006900000
000006900000
ENDCHAR
STARTCHAR Thorn
ENCODING 222
SWIDTH 787 0
DWIDTH 13 0
BBX 11 11 1 0
BITMAP
3C0000000000
3C0000000000
3FFFFFFDA200
3C0000127E20
3C0000000980
3C0000000690
3C0000000980
3C0000027E20
3FFFFFFDA200
3C0000000000
3C0000000000
ENDCHAR
STARTCHAR germandbls
ENCODING 223
SWIDTH 863 0
DWIDTH 14 0
BBX 12 11 1 0
BITMAP
004AEFEDA500
09D621125C90
4D10000002D0
780000014B70
8700FFFFF800
870000126BC1
870000000099
87000000003C
87000000006B
870C620138E3
87039DEEC920
ENDCHAR
STARTCHAR agrave
ENCODING 224
SWIDTH 888 0
DWIDTH 14 0
BBX 12 14 1 0
BITMAP
0007A3000000
000038900000
000000000000
027BEFEDA500
0C7310025BA0
0000000000B4
000000000077
0001589BDEF8
04CEA8542178
7D4000000078
E20000000078
E20000000098
8D5200258DD8
06BEFEDA6178
ENDCHAR
STARTCHAR aacute
ENCODING 225
SWIDTH 888 0
DWIDTH 14 0
BBX 12 14 1 0
BITMAP
000000298000
000008930000
000000000000
027BEFEDA500
0C7310025BA0
0000000000B4
000000000077
0001589BDEF8
04CEA8542178
7D4000000078
E20000000078
E20000000098
8D5200258DD8
06BEFEDA6178
ENDCHAR
STARTCHAR acircumflex
ENCODING 226
SWIDTH 888 0
DWIDTH 14 0
BBX 12 14 1 0
BITMAP
00004BC50000
00099338A000
000000000000
027BEFEDA500
0C7310025BA0
0000000000B4
000000000077
0001589BDEF8
04CEA8542178
7D4000000078
E20000000078
E20000000098
8D5200258DD8
06BEFEDA6178
ENDCHAR
STARTCHAR atilde
ENCODING 227
SWIDTH 888 0
DWIDTH 14 0
BBX 12 14 1 0
BITMAP
0003DC52B000
000934CE4000
000000000000
027BEFEDA500
0C7310025BA0
0000000000B4
000000000077
0001589BDEF8
04CEA8542178
7D4000000078
E20000000078
E20000000098
8D5200258DD8
06BEFEDA6178
ENDCHAR
STARTCHAR adieresis
ENCODING 228
SWIDTH 888 0
DWIDTH 14 0
BBX 12 13 1 0
BITMAP
0002F10F3000
000000000000
027BEFEDA500
0C7310025BA0
0000000000B4
000000000077
0001589BDEF8
04CEA8542178
7D4000000078
E20000000078
E20000000098
8D5200258DD8
06BEFEDA6178
ENDCHAR
STARTCHAR aring
ENCODING 229
SWIDTH 888 0
DWIDTH 14 0
BBX 12 15 1 0
BITMAP
00007EE80000
0000D21D1000
00007EE80000
000000000000
027BEFEDA500
0C7310025BA0
0000000000B4
000000000077
0001589BDEF8
04CEA8542178
7D4000000078
E20000000078
E20000000098
8D5200258DD8
06BEFEDA6178
ENDCHAR
STARTCHAR ae
ENCODING 230
SWIDTH 1551 0
DWIDTH 25 0
BBX 23 11 1 0
BITMAP
027BEFEDA500049DEEC82000
0C7310025BA09D620138D400
0000000000BCB00000002D20
00000000007E100000000680
0001589BDEF90000000001C0
04CEA854218FFFFFFFFFFFE0
7D4000000069000000000000
E2000000001D100000000000
E2000000017EA00000000000
8D5201259EA39D7310136B10
06BEFEDA6100039CEFEC8300
ENDCHAR
STARTCHAR ccedilla
ENCODING 231
SWIDTH 869 0
DWIDTH 14 0
BBX 12 14 1 -3
BITMAP
0006ADFFDB72
02DA5200148A
1D4000000000
880000000000
C30000000000
E10000000000
C30000000000
880000000000
1D4000000000
03DA5200147A
0006AEFFEB72
000002FB0000
0000001C3000
00005FFA0000
ENDCHAR
STARTCHAR egrave
ENCODING 232
SWIDTH 910 0
DWIDTH 15 0
BBX 13 14 1 0
BITMAP
0003B500000000
000017A2000000
00000000000000
0017BEFEB50000
03DA41014BB100
1D500000007A00
88000000000C20
C3000000000860
EFFFFFFFFFFF70
D2000000000000
88000000000000
1D400000000000
03DA5200148800
0016BDFFEB6100
ENDCHAR
STARTCHAR eacute
ENCODING 233
SWIDTH 910 0
DWIDTH 15 0
BBX 13 14 1 0
BITMAP
00000017B00000
000005A5000000
00000000000000
0017BEFEB50000
03DA41014BB100
1D500000007A00
88000000000C20
C3000000000860
EFFFFFFFFFFF70
D2000000000000
88000000000000
1D400000000000
03DA5200148800
0016BDFFEB6100
ENDCHAR
STARTCHAR ecircumflex
ENCODING 234
SWIDTH 910 0
DWIDTH 15 0
BBX 13 14 1 0
BITMAP
000029D7100000
0006A527B20000
00000000000000
0017BEFEB50000
03DA41014BB100
1D500000007A00
88000000000C20
C3000000000860
EFFFFFFFFFFF70
D2000000000000
88000000000000
1D400000000000
03DA5200148800
0016BDFFEB6100
ENDCHAR
STARTCHAR edieresis
ENCODING 235
SWIDTH 910 0
DWIDTH 15 0
BBX 13 13 1 0
BITMAP
0000C50A700000
00000000000000
0017BEFEB50000
03DA41014BB100
1D500000007A00
88000000000C20
C3000000000860
EFFFFFFFFFFF70
D2000000000000
88000000000000
1D400000000000
03DA5200148800
0016BDFFEB6100
ENDCHAR
STARTCHAR igrave
ENCODING 236
SWIDTH 287 0
DWIDTH 5 0
BBX 5 14 -1 0
BITMAP
3B5000
017A10
000000
003C00
003C00
003C00
003C00
003C00
003C00
003C00
003C00
003C00
003C00
003C00
ENDCHAR
STARTCHAR iacute
ENCODING 237
SWIDTH 287 0
DWIDTH 5 0
BBX 4 14 1 0
BITMAP
017B
5A50
0000
3C00
3C00
3C00
3C00
3C00
3C00
3C00
3C00
3C00
3C00
3C00
ENDCHAR
STARTCHAR icircumflex
ENCODING 238
SWIDTH 287 0
DWIDTH 5 0
BBX 7 14 -1 0
BITMAP
029D7100
6A527B20
00000000
003C0000
003C0000
003C0000
003C0000
003C0000
003C0000
003C0000
003C0000
003C0000
003C0000
003C0000
ENDCHAR
STARTCHAR idieresis
ENCODING 239
SWIDTH 287 0
DWIDTH 5 0
BBX 5 13 0 0
BITMAP
D50B70
000000
03C000
03C000
03C000
03C000
03C000
03C000
03C000
03C000
03C000
03C000
03C000
ENDCHAR
STARTCHAR eth
ENCODING 240
SWIDTH 910 0
DWIDTH 15 0
BBX 14 11 0 0
BITMAP
03FFFFFEDB6100
03C0000126BE30
03C000000008D0
03C000000000D4
03C00000000097
BFFFFFF3000088
03C00000000087
03C000000000D4
03C000000007D0
03C0000124AD20
03FFFFFEDB6100
ENDCHAR
STARTCHAR ntilde
ENCODING 241
SWIDTH 933 0
DWIDTH 15 0
BBX 13 14 1 0
BITMAP
0001CD71C10000
000572AE800000
00000000000000
3C0049DEEC6000
3C4CB62114C800
3FC30000002E00
3D000000000D20
3C000000000C30
3C000000000C30
3C000000000C30
3C000000000C30
3C000000000C30
3C000000000C30
3C000000000C30
ENDCHAR
STARTCHAR ograve
ENCODING 242
SWIDTH 983 0
DWIDTH 16 0
BBX 14 14 1 0
BITMAP
00009920000000
00000398000000
00000000000000
0006BDFEDA5000
03DA410125BC10
2D4000000007C0
880000000000B5
C3000000000069
E100000000005A
D3000000000069
980000000000B5
2E4000000007C0
03D9410025BC10
0017BEFFDA5000
ENDCHAR
STARTCHAR oacute
ENCODING 243
SWIDTH 983 0
DWIDTH 16 0
BBX 14 14 1 0
BITMAP
00000003A60000
00000098200000
00000000000000
0006BDFEDA5000
03DA410125BC10
2D4000000007C0
880000000000B5
C3000000000069
E100000000005A
D3000000000069
980000000000B5
2E4000000007C0
03D9410025BC10
0017BEFFDA5000
ENDCHAR
STARTCHAR ocircumflex
ENCODING 244
SWIDTH 983 0
DWIDTH 16 0
BBX 14 14 1 0
BITMAP
000005CB400000
0000B834990000
00000000000000
0006BDFEDA5000
03DA410125BC10
2D4000000007C0
880000000000B5
C3000000000069
E100000000005A
D3000000000069
980000000000B5
2E4000000007C0
03D9410025BC10
0017BEFFDA5000
ENDCHAR
STARTCHAR otilde
ENCODING 245
SWIDTH 983 0
DWIDTH 16 0
BBX 14 14 1 0
BITMAP
00005EB4490000
0000B25CE30000
00000000000000
0006BDFEDA5000
03DA410125BC10
2D4000000007C0
880000000000B5
C3000000000069
E100000000005A
D3000000000069
980000000000B5
2E4000000007C0
03D9410025BC10
0017BEFFDA5000
ENDCHAR
STARTCHAR odieresis
ENCODING 246
SWIDTH 983 0
DWIDTH 16 0
BBX 14 13 1 0
BITMAP
00004E02F10000
00000000000000
0006BDFEDA5000
03DA410125BC10
2D4000000007C0
880000000000B5
C3000000000069
E100000000005A
D3000000000069
980000000000B5
2E4000000007C0
03D9410025BC10
0017BEFFDA5000
ENDCHAR
STARTCHAR divide
ENCODING 247
SWIDTH 634 0
DWIDTH 10 0
BBX 8 7 1 2
BITMAP
00079000
00000000
00000000
AFFFFFFC
00000000
00000000
00079000
ENDCHAR
STARTCHAR oslash
ENCODING 248
SWIDTH 983 0
DWIDTH 16 0
BBX 14 13 1 -1
BITMAP
00000000003B10
0006BDFEDAD200
03DA41012CCC10
2D4000005907C0
88000002C100C5
C300001C300078
E100009600005A
C30005A0000069
88002C100000B5
2E40C3000007C0
04DC910025BC10
005CBDFFDA5000
02C10000000000
ENDCHAR
STARTCHAR ugrave
ENCODING 249
SWIDTH 931 0
DWIDTH 15 0
BBX 13 14 1 0
BITMAP
0002C600000000
000016A3000000
00000000000000
4B000000000E10
4B000000000E10
4B000000000E10
4B000000000E10
4B000000000E10
4B000000000E10
4B000000000E10
3C000000001E10
1E10000004DF10
08B31126CC3E10
006CEED9400E10
ENDCHAR
STARTCHAR uacute
ENCODING 250
SWIDTH 931 0
DWIDTH 15 0
BBX 13 14 1 0
BITMAP
00000016C10000
000004A5100000
00000000000000
4B000000000E10
4B000000000E10
4B000000000E10
4B000000000E10
4B000000000E10
4B000000000E10
4B000000000E10
3C000000001E10
1E10000004DF10
08B31126CC3E10
006CEED9400E10
ENDCHAR
STARTCHAR ucircumflex
ENCODING 251
SWIDTH 931 0
DWIDTH 15 0
BBX 13 14 1 0
BITMAP
000028D7100000
0005A626B30000
00000000000000
4B000000000E10
4B000000000E10
4B000000000E10
4B000000000E10
4B000000000E10
4B000000000E10
4B000000000E10
3C000000001E10
1E10000004DF10
08B31126CC3E10
006CEED9400E10
ENDCHAR
STARTCHAR udieresis
ENCODING 252
SWIDTH 931 0
DWIDTH 15 0
BBX 13 13 1 0
BITMAP
0000B709900000
00000000000000
4B000000000E10
4B000000000E10
4B000000000E10
4B000000000E10
4B000000000E10
4B000000000E10
4B000000000E10
3C000000001E10
1E10000004DF10
08B31126CC3E10
006CEED9400E10
ENDCHAR
STARTCHAR yacute
ENCODING 253
SWIDTH 911 0
DWIDTH 15 0
BBX 12 14 1 0
BITMAP
000000299000
000007930000
000000000000
87000000003C
87000000003C
87000000003C
79000000007C
3E10000007DC
08D51025BB4C
005BEFDA403B
00000000006A
0000000002E5
795210248E80
16ADEFDC9300
ENDCHAR
STARTCHAR thorn
ENCODING 254
SWIDTH 787 0
DWIDTH 13 0
BBX 11 11 1 0
BITMAP
3C0000000000
3C0000000000
3FFFFFFDA200
3C0000127E20
3C0000000980
3C0000000690
3C0000000980
3C0000027E20
3FFFFFFDA200
3C0000000000
3C0000000000
ENDCHAR
STARTCHAR ydieresis
ENCODING 255
SWIDTH 911 0
DWIDTH 15 0
BBX 12 13 1 0
BITMAP
0001F20E4000
000000000000
87000000003C
87000000003C
87000000003C
79000000007C
3E10000007DC
08D51025BB4C
005BEFDA403B
00000000006A
0000000002E5
795210248E80
16ADEFDC9300
ENDCHAR
STARTCHAR Amacron
ENCODING 256
SWIDTH 812 0
DWIDTH 13 0
BBX 13 13 0 0
BITMAP
00009FFFA00000
00000000000000
000005F5000000
00000C6D000000
00005B0A600000
0000C302D00000
0005A000960000
000D20002D0000
00690000096000
00DFFFFFFFD000
06900000009600
0D200000002D10
6A000000000970
ENDCHAR
STARTCHAR amacron
ENCODING 257
SWIDTH 888 0
DWIDTH 14 0
BBX 12 13 1 0
BITMAP
0002FFFF3000
000000000000
027BEFEDA500
0C7310025BA0
0000000000B4
000000000077
0001589BDEF8
04CEA8542178
7D4000000078
E20000000078
E20000000098
8D5200258DD8
06BEFEDA6178
ENDCHAR
STARTCHAR Abreve
ENCODING 258
SWIDTH 812 0
DWIDTH 13 0
BBX 13 14 0 0
BITMAP
0001D403D10000
00004CEC400000
00000000000000
000005F5000000
00000C6D000000
00005B0A600000
0000C302D00000
0005A000960000
000D20002D0000
00690000096000
00DFFFFFFFD000
06900000009600
0D200000002D10
6A000000000970
ENDCHAR
STARTCHAR abreve
ENCODING 259
SWIDTH 888 0
DWIDTH 14 0
BBX 12 14 1 0
BITMAP
000791198000
00009EEA1000
000000000000
027BEFEDA500
0C7310025BA0
0000000000B4
000000000077
0001589BDEF8
04CEA8542178
7D4000000078
E20000000078
E20000000098
8D5200258DD8
06BEFEDA6178
ENDCHAR
STARTCHAR Aogonek
ENCODING 260
SWIDTH 812 0
DWIDTH 13 0
BBX 14 14 0 -3
BITMAP
000005F5000000
00000C6D000000
00005B0A600000
0000C302D00000
0005A000960000
000D20002D0000
00690000096000
00DFFFFFFFD000
06900000009600
0D200000002D10
6A000000000970
00000000002A20
00000000009600
00000000005EFB
ENDCHAR
STARTCHAR aogonek
ENCODING 261
SWIDTH 888 0
DWIDTH 14 0
BBX 13 14 1 -3
BITMAP
027BEFEDA50000
0C7310025BA000
0000000000B400
00000000007700
0001589BDEF800
04CEA854217800
7D400000007800
E2000000007800
E2000000009800
8D5200259DD800
06BEFEDA617800
00000000039100
000000000B4000
0000000006EFA0
ENDCHAR
STARTCHAR Cacute
ENCODING 262
SWIDTH 869 0
DWIDTH 14 0
BBX 12 14 1 0
BITMAP
00000004A500
000000A72000
000000000000
0006ADFFDB72
02DA5200148A
1D4000000000
880000000000
C30000000000
E10000000000
C30000000000
880000000000
1D4000000000
03DA5200147A
0006ADFFEB72
ENDCHAR
STARTCHAR cacute
ENCODING 263
SWIDTH 869 0
DWIDTH 14 0
BBX 12 14 1 0
BITMAP
00000004A500
000000A82000
000000000000
0006ADFFDB72
02DA5200148A
1D4000000000
880000000000
C30000000000
E10000000000
C30000000000
880000000000
1D4000000000
03DA5200147A
0006ADFFEB72
ENDCHAR
STARTCHAR Ccircumflex
ENCODING 264
SWIDTH 869 0
DWIDTH 14 0
BBX 12 14 1 0
BITMAP
000006DA3000
0001B824A700
000000000000
0006ADFFDB72
02DA5200148A
1D4000000000
880000000000
C30000000000
E10000000000
C30000000000
880000000000
1D4000000000
03DA5200147A
0006ADFFEB72
ENDCHAR
STARTCHAR ccircumflex
ENCODING 265
SWIDTH 869 0
DWIDTH 14 0
BBX 12 14 1 0
BITMAP
000006CA3000
0001B8249800
000000000000
0006ADFFDB72
02DA5200148A
1D4000000000
880000000000
C30000000000
E10000000000
C30000000000
880000000000
1D4000000000
03DA5200147A
0006ADFFEB72
ENDCHAR
STARTCHAR Cdotaccent
ENCODING 266
SWIDTH 869 0
DWIDTH 14 0
BBX 12 13 1 0
BITMAP
000000C60000
000000000000
0006ADFFDB72
02DA5200148A
1D4000000000
880000000000
C30000000000
E10000000000
C30000000000
880000000000
1D4000000000
03DA5200147A
0006ADFFEB72
ENDCHAR
STARTCHAR cdotaccent
ENCODING 267
SWIDTH 869 0
DWIDTH 14 0
BBX 12 13 1 0
BITMAP
000000C60000
000000000000
0006ADFFDB72
02DA5200148A
1D4000000000
880000000000
C30000000000
E10000000000
C30000000000
880000000000
1D4000000000
03DA5200147A
0006ADFFEB72
ENDCHAR
STARTCHAR Ccaron
ENCODING 268
SWIDTH 869 0
DWIDTH 14 0
BBX 12 14 1 0
BITMAP
0001B7249700
000006DA3000
000000000000
0006ADFFDB72
02DA5200148A
1D4000000000
880000000000
C30000000000
E10000000000
C30000000000
880000000000
1D4000000000
03DA5200147A
0006ADFFEB72
ENDCHAR
STARTCHAR ccaron
ENCODING 269
SWIDTH 869 0
DWIDTH 14 0
BBX 12 14 1 0
BITMAP
0001B8249800
000006CA3000
000000000000
0006ADFFDB72
02DA5200148A
1D4000000000
880000000000
C30000000000
E10000000000
C30000000000
880000000000
1D4000000000
03DA5200147A
0006ADFFEB72
ENDCHAR
STARTCHAR Dcaron
ENCODING 270
SWIDTH 910 0
DWIDTH 15 0
BBX 13 14 1 0
BITMAP
0089428B000000
0003AC50000000
00000000000000
3FFFFFFEC71000
3C0000014AD300
3C000000006D00
3C000000000D40
3C000000000970
3C000000000880
3C000000000960
3C000000000C40
3C000000006C00
3C00000249D200
3FFFFFFEC71000
ENDCHAR
STARTCHAR dcaron
ENCODING 271
SWIDTH 910 0
DWIDTH 15 0
BBX 13 14 1 0
BITMAP
0089428B000000
0003AC50000000
00000000000000
3FFFFFFEC71000
3C0000014AD300
3C000000006D00
3C000000000D40
3C000000000970
3C000000000880
3C000000000960
3C000000000C40
3C000000006C00
3C00000249D200
3FFFFFFEC71000
ENDCHAR
STARTCHAR Dcroat
ENCODING 272
SWIDTH 910 0
DWIDTH 15 0
BBX 14 11 0 0
BITMAP
03FFFFFEDB6100
03C0000126BE30
03C000000008D0
03C000000000D4
03C00000000097
BFFFFFF3000088
03C00000000087
03C000000000D4
03C000000007D0
03C0000124AD20
03FFFFFEDB6100
ENDCHAR
STARTCHAR dcroat
ENCODING 273
SWIDTH 910 0
DWIDTH 15 0
BBX 14 11 0 0
BITMAP
03FFFFFEDB6100
03C0000126BE30
03C000000008D0
03C000000000D4
03C00000000097
BFFFFFF3000088
03C00000000087
03C000000000D4
03C000000007D0
03C0000124AD20
03FFFFFEDB6100
ENDCHAR
STARTCHAR Emacron
ENCODING 274
SWIDTH 754 0
DWIDTH 12 0
BBX 10 13 1 0
BITMAP
000EFFF500
0000000000
3FFFFFFFFB
3D00000000
3D00000000
3D00000000
3D00000000
3FFFFFFFF5
3D00000000
3D00000000
3D00000000
3D00000000
3FFFFFFFFD
ENDCHAR
STARTCHAR emacron
ENCODING 275
SWIDTH 910 0
DWIDTH 15 0
BBX 13 13 1 0
BITMAP
0000CFFF700000
00000000000000
0017BEFEB50000
03DA41014BB100
1D500000007A00
88000000000C20
C3000000000860
EFFFFFFFFFFF70
D2000000000000
88000000000000
1D400000000000
03DA5200148800
0016BDFFEB6100
ENDCHAR
STARTCHAR Ebreve
ENCODING 276
SWIDTH 754 0
DWIDTH 12 0
BBX 10 14 1 0
BITMAP
005B217B00
0007DEB200
0000000000
3FFFFFFFFB
3D00000000
3D00000000
3D00000000
3D00000000
3FFFFFFFF5
3D00000000
3D00000000
3D00000000
3D00000000
3FFFFFFFFD
ENDCHAR
STARTCHAR ebreve
ENCODING 277
SWIDTH 910 0
DWIDTH 15 0
BBX 13 14 1 0
BITMAP
0003C215C00000
00006DEB200000
00000000000000
0017BEFEB50000
03DA41014BB100
1D500000007A00
88000000000C20
C3000000000860
EFFFFFFFFFFF70
D2000000000000
88000000000000
1D400000000000
03DA5200148800
0016BDFFEB6100
ENDCHAR
STARTCHAR Edotaccent
ENCODING 278
SWIDTH 754 0
DWIDTH 12 0
BBX 10 13 1 0
BITMAP
00006C0000
0000000000
3FFFFFFFFB
3D00000000
3D00000000
3D00000000
3D00000000
3FFFFFFFF5
3D00000000
3D00000000
3D00000000
3D00000000
3FFFFFFFFD
ENDCHAR
STARTCHAR edotaccent
ENCODING 279
SWIDTH 910 0
DWIDTH 15 0
BBX 13 13 1 0
BITMAP
000004E0000000
00000000000000
0017BEFEB50000
03DA41014BB100
1D500000007A00
88000000000C20
C3000000000860
EFFFFFFFFFFF70
D2000000000000
88000000000000
1D400000000000
03DA5200148800
0016BDFFEB6100
ENDCHAR
STARTCHAR Eogonek
ENCODING 280
SWIDTH 754 0
DWIDTH 12 0
BBX 10 14 1 -3
BITMAP
3FFFFFFFFB
3D00000000
3D00000000
3D00000000
3D00000000
3FFFFFFFF5
3D00000000
3D00000000
3D00000000
3D00000000
3FFFFFFFFD
0000001B41
0000008700
0000004DFD
ENDCHAR
STARTCHAR eogonek
ENCODING 281
SWIDTH 910 0
DWIDTH 15 0
BBX 13 14 1 -3
BITMAP
0017BEFEB50000
03DA41014BB100
1D500000007A00
88000000000C20
C3000000000860
EFFFFFFFFFFF70
D2000000000000
88000000000000
1D400000000000
03DA5200148800
0016BDFFDDB200
000000000C1000
000000001D1000
0000000009FF50
ENDCHAR
STARTCHAR Ecaron
ENCODING 282
SWIDTH 754 0
DWIDTH 12 0
BBX 10 14 1 0
BITMAP
0079427B10
0003AD6000
0000000000
3FFFFFFFFB
3D00000000
3D00000000
3D00000000
3D00000000
3FFFFFFFF5
3D00000000
3D00000000
3D00000000
3D00000000
3FFFFFFFFD
ENDCHAR
STARTCHAR ecaron
ENCODING 283
SWIDTH 910 0
DWIDTH 15 0
BBX 13 14 1 0
BITMAP
0006A527B20000
000029D7100000
00000000000000
0017BEFEB50000
03DA41014BB100
1D500000007A00
88000000000C20
C3000000000860
EFFFFFFFFFFF70
D2000000000000
88000000000000
1D400000000000
03DA5200148800
0016BDFFEB6100
ENDCHAR
STARTCHAR Gcircumflex
ENCODING 284
SWIDTH 910 0
DWIDTH 15 0
BBX 13 14 1 0
BITMAP
000005CB400000
0000A833990000
00000000000000
0005ADEFEB8300
02CB5210137C00
1D500000000000
88000000000000
C3000000000000
E1000000000000
C300001FFFFF40
89000000000B40
1E600000000B40
03DB5210124C40
0006ADFFEDA710
ENDCHAR
STARTCHAR gcircumflex
ENCODING 285
SWIDTH 910 0
DWIDTH 15 0
BBX 13 14 1 0
BITMAP
000005CB400000
0000A833990000
00000000000000
0005ADEFEB8300
02CB5210137C00
1D500000000000
88000000000000
C3000000000000
E1000000000000
C300001FFFFF40
89000000000B40
1E600000000B40
03DB5210124C40
0006ADFFEDA710
ENDCHAR
STARTCHAR Gbreve
ENCODING 286
SWIDTH 910 0
DWIDTH 15 0
BBX 13 14 1 0
BITMAP
00009811A70000
00001AEE900000
00000000000000
0005ADEFEB8300
02CB5210137C00
1D500000000000
88000000000000
C3000000000000
E1000000000000
C300001FFFFF40
89000000000B40
1E600000000B40
03DB5210124C40
0006ADFFEDA710
ENDCHAR
STARTCHAR gbreve
ENCODING 287
SWIDTH 910 0
DWIDTH 15 0
BBX 13 14 1 0
BITMAP
00009811A70000
00001AEE900000
00000000000000
0005ADEFEB8300
02CB5210137C00
1D500000000000
88000000000000
C3000000000000
E1000000000000
C300001FFFFF40
89000000000B40
1E600000000B40
03DB5210124C40
0006ADFFEDA710
ENDCHAR
STARTCHAR Gdotaccent
ENCODING 288
SWIDTH 910 0
DWIDTH 15 0
BBX 13 13 1 0
BITMAP
000000A8000000
00000000000000
0005ADEFEB8300
02CB5210137C00
1D500000000000
88000000000000
C3000000000000
E1000000000000
C300001FFFFF40
89000000000B40
1E600000000B40
03DB5210124C40
0006ADFFEDA710
ENDCHAR
STARTCHAR gdotaccent
ENCODING 289
SWIDTH 910 0
DWIDTH 15 0
BBX 13 13 1 0
BITMAP
000000A8000000
00000000000000
0005ADEFEB8300
02CB5210137C00
1D500000000000
88000000000000
C3000000000000
E1000000000000
C300001FFFFF40
89000000000B40
1E600000000B40
03DB5210124C40
0006ADFFEDA710
ENDCHAR
STARTCHAR Gcommaaccent
ENCODING 290
SWIDTH 910 0
DWIDTH 15 0
BBX 13 14 1 -3
BITMAP
0005ADEFEB8300
02CB5210137C00
1D500000000000
88000000000000
C3000000000000
E1000000000000
C300001FFFFF40
89000000000B40
1E600000000B40
03DB5210124C40
0006ADFFEDA710
00000000000000
00000069000000
00000095000000
ENDCHAR
STARTCHAR gcommaaccent
ENCODING 291
SWIDTH 910 0
DWIDTH 15 0
BBX 13 14 1 -3
BITMAP
0005ADEFEB8300
02CB5210137C00
1D500000000000
88000000000000
C3000000000000
E1000000000000
C300001FFFFF40
89000000000B40
1E600000000B40
03DB5210124C40
0006ADFFEDA710
00000000000000
00000069000000
00000095000000
ENDCHAR
STARTCHAR Hcircumflex
ENCODING 292
SWIDTH 949 0
DWIDTH 15 0
BBX 13 14 1 0
BITMAP
000017D9200000
0003B625A50000
00000000000000
3C000000000960
3C000000000960
3C000000000960
3C000000000960
3C000000000960
3FFFFFFFFFFF60
3C000000000960
3C000000000960
3C000000000960
3C000000000960
3C000000000960
ENDCHAR
STARTCHAR hcircumflex
ENCODING 293
SWIDTH 949 0
DWIDTH 15 0
BBX 13 14 1 0
BITMAP
000017D9200000
0003B625A50000
00000000000000
3C000000000960
3C000000000960
3C000000000960
3C000000000960
3C000000000960
3FFFFFFFFFFF60
3C000000000960
3C000000000960
3C000000000960
3C000000000960
3C000000000960
ENDCHAR
STARTCHAR Hbar
ENCODING 294
SWIDTH 949 0
DWIDTH 15 0
BBX 15 11 0 0
BITMAP
03C0000000009600
03C0000000009600
8FFFFFFFFFFFFFB0
03C0000000009600
03C0000000009600
03FFFFFFFFFFF600
03C0000000009600
03C0000000009600
03C0000000009600
03C0000000009600
03C0000000009600
ENDCHAR
STARTCHAR hbar
ENCODING 295
SWIDTH 949 0
DWIDTH 15 0
BBX 15 11 0 0
BITMAP
03C0000000009600
03C0000000009600
8FFFFFFFFFFFFFB0
03C0000000009600
03C0000000009600
03FFFFFFFFFFF600
03C0000000009600
03C0000000009600
03C0000000009600
03C0000000009600
03C0000000009600
ENDCHAR
STARTCHAR Itilde
ENCODING 296
SWIDTH 287 0
DWIDTH 5 0
BBX 6 14 -1 0
BITMAP
1CD61C
673AE8
000000
003C00
003C00
003C00
003C00
003C00
003C00
003C00
003C00
003C00
003C00
003C00
ENDCHAR
STARTCHAR itilde
ENCODING 297
SWIDTH 287 0
DWIDTH 5 0
BBX 6 14 -1 0
BITMAP
1CD61C
572AE8
000000
003C00
003C00
003C00
003C00
003C00
003C00
003C00
003C00
003C00
003C00
003C00
ENDCHAR
STARTCHAR Imacron
ENCODING 298
SWIDTH 287 0
DWIDTH 5 0
BBX 5 13 0 0
BITMAP
DFFF70
000000
03C000
03C000
03C000
03C000
03C000
03C000
03C000
03C000
03C000
03C000
03C000
ENDCHAR
STARTCHAR imacron
ENCODING 299
SWIDTH 287 0
DWIDTH 5 0
BBX 5 13 0 0
BITMAP
DFFF70
000000
03C000
03C000
03C000
03C000
03C000
03C000
03C000
03C000
03C000
03C000
03C000
ENDCHAR
STARTCHAR Ibreve
ENCODING 300
SWIDTH 287 0
DWIDTH 5 0
BBX 6 14 -1 0
BITMAP
3C215C
06DEB2
000000
003C00
003C00
003C00
003C00
003C00
003C00
003C00
003C00
003C00
003C00
003C00
ENDCHAR
STARTCHAR ibreve
ENCODING 301
SWIDTH 287 0
DWIDTH 5 0
BBX 6 14 -1 0
BITMAP
3C215C
06DEB2
000000
003C00
003C00
003C00
003C00
003C00
003C00
003C00
003C00
003C00
003C00
003C00
ENDCHAR
STARTCHAR Iogonek
ENCODING 302
SWIDTH 287 0
DWIDTH 5 0
BBX 4 14 0 -3
BITMAP
03C0
03C0
03C0
03C0
03C0
03C0
03C0
03C0
03C0
03C0
03C0
2A10
8600
4EFC
ENDCHAR
STARTCHAR iogonek
ENCODING 303
SWIDTH 287 0
DWIDTH 5 0
BBX 4 14 0 -3
BITMAP
03C0
03C0
03C0
03C0
03C0
03C0
03C0
03C0
03C0
03C0
03C0
2A10
8600
4EFC
ENDCHAR
STARTCHAR Idotaccent
ENCODING 304
SWIDTH 287 0
DWIDTH 5 0
BBX 2 13 1 0
BITMAP
5D
00
3C
3C
3C
3C
3C
3C
3C
3C
3C
3C
3C
ENDCHAR
STARTCHAR dotlessi
ENCODING 305
SWIDTH 287 0
DWIDTH 5 0
BBX 2 11 1 0
BITMAP
3C
3C
3C
3C
3C
3C
3C
3C
3C
3C
3C
ENDCHAR
STARTCHAR IJ
ENCODING 306
SWIDTH 877 0
DWIDTH 14 0
BBX 12 11 1 0
BITMAP
3C00000000A4
3C00000000A4
3C00000000A4
3C00000000A4
3C00000000A4
3C00000000A4
3C00000000A4
3C00000000B4
3C00000001E2
3C0583113C90
3C017CEEC600
ENDCHAR
STARTCHAR ij
ENCODING 307
SWIDTH 877 0
DWIDTH 14 0
BBX 12 11 1 0
BITMAP
3C00000000A4
3C00000000A4
3C00000000A4
3C00000000A4
3C00000000A4
3C00000000A4
3C00000000A4
3C00000000B4
3C00000001E2
3C0583113C90
3C017CEEC600
ENDCHAR
STARTCHAR Jcircumflex
ENCODING 308
SWIDTH 590 0
DWIDTH 9 0
BBX 11 14 0 0
BITMAP
000003AD6000
00007A427B10
000000000000
0000004B0000
0000004B0000
0000004B0000
0000004B0000
0000004B0000
0000004B0000
0000004B0000
0000005A0000
000000980000
B51028D10000
4AEFD9200000
ENDCHAR
STARTCHAR jcircumflex
ENCODING 309
SWIDTH 590 0
DWIDTH 9 0
BBX 11 14 0 0
BITMAP
000003AD6000
00007A427B10
000000000000
0000004B0000
0000004B0000
0000004B0000
0000004B0000
0000004B0000
0000004B0000
0000004B0000
0000005A0000
000000980000
B51028D10000
4AEFD9200000
ENDCHAR
STARTCHAR Kcommaaccent
ENCODING 310
SWIDTH 806 0
DWIDTH 13 0
BBX 12 14 1 -3
BITMAP
3C0000003B70
3C000008B200
3C0003C70000
3C019C200000
3C4D70000000
3DDA10000000
3C19D3000000
3C004D800000
3C00019C3000
3C000005D700
3C0000001AB2
000000000000
00001E100000
00003A000000
ENDCHAR
STARTCHAR kcommaaccent
ENCODING 311
SWIDTH 867 0
DWIDTH 14 0
BBX 12 14 1 -3
BITMAP
3C00000000E1
3C00000004C0
3C0000001D50
3C000003D700
3C0025AC4000
3FFFFFB30000
3C00137CC300
3C0000005E40
3C00000003E1
3C0000000088
3C000000003C
000000000000
000008700000
00000B200000
ENDCHAR
STARTCHAR kgreenlandic
ENCODING 312
SWIDTH 867 0
DWIDTH 14 0
BBX 12 11 1 0
BITMAP
3C00000000E1
3C00000004C0
3C0000001D50
3C000003D700
3C0025AC4000
3FFFFFB30000
3C00137CC300
3C0000005E40
3C00000003E1
3C0000000088
3C000000003C
ENDCHAR
STARTCHAR Lacute
ENCODING 313
SWIDTH 701 0
DWIDTH 11 0
BBX 10 14 1 0
BITMAP
017B000000
5A50000000
0000000000
3C00000000
3C00000000
3C00000000
3C00000000
3C00000000
3C00000000
3C00000000
3C00000000
3C00000000
3C00000000
3FFFFFFFF9
ENDCHAR
STARTCHAR lacute
ENCODING 314
SWIDTH 709 0
DWIDTH 11 0
BBX 11 14 1 0
BITMAP
017B00000000
5A5000000000
000000000000
3C0000000000
3C0000000000
3C0000000000
3C0000000000
3C0000000000
3C0000000000
3C0000000000
2C0000000000
1E1000000000
0BA310000000
019DFFFFFF30
ENDCHAR
STARTCHAR Lcommaaccent
ENCODING 315
SWIDTH 701 0
DWIDTH 11 0
BBX 10 14 1 -3
BITMAP
3C00000000
3C00000000
3C00000000
3C00000000
3C00000000
3C00000000
3C00000000
3C00000000
3C00000000
3C00000000
3FFFFFFFF9
0000000000
00003D0000
0000580000
ENDCHAR
STARTCHAR lcommaaccent
ENCODING 316
SWIDTH 709 0
DWIDTH 11 0
BBX 11 14 1 -3
BITMAP
3C0000000000
3C0000000000
3C0000000000
3C0000000000
3C0000000000
3C0000000000
3C0000000000
2C0000000000
1E1000000000
0BA310000000
019DFFFFFF30
000000000000
00000D300000
00000D000000
ENDCHAR
STARTCHAR Lcaron
ENCODING 317
SWIDTH 701 0
DWIDTH 11 0
BBX 10 11 1 0
BITMAP
3C0000A600
3C0000C200
3C0000C000
3C00000000
3C00000000
3C00000000
3C00000000
3C00000000
3C00000000
3C00000000
3FFFFFFFF9
ENDCHAR
STARTCHAR lcaron
ENCODING 318
SWIDTH 709 0
DWIDTH 11 0
BBX 11 11 1 0
BITMAP
3C0000A60000
3C0000C20000
3C0000C00000
3C0000000000
3C0000000000
3C0000000000
3C0000000000
2C0000000000
1E1000000000
0BA310000000
019DFFFFFF30
ENDCHAR
STARTCHAR Ldot
ENCODING 319
SWIDTH 701 0
DWIDTH 11 0
BBX 10 11 1 0
BITMAP
3C00000000
3C00000000
3C00000000
3C00000000
3C0000C800
3C0000C800
3C00000000
3C00000000
3C00000000
3C00000000
3FFFFFFFF9
ENDCHAR
STARTCHAR ldotaccent
ENCODING 320
SWIDTH 709 0
DWIDTH 11 0
BBX 11 11 1 0
BITMAP
3C0000000000
3C0000000000
3C0000000000
3C0000000000
3C0000AB0000
3C0000AB0000
3C0000000000
2C0000000000
1E1000000000
0BA310000000
019DFFFFFF30
ENDCHAR
STARTCHAR Lslash
ENCODING 321
SWIDTH 701 0
DWIDTH 11 0
BBX 11 11 0 0
BITMAP
03C000000000
03C000000000
03C000000000
03C000000000
03C28B000000
07FB50000000
AAC000000000
03C000000000
03C000000000
03C000000000
03FFFFFFFF90
ENDCHAR
STARTCHAR lslash
ENCODING 322
SWIDTH 709 0
DWIDTH 11 0
BBX 12 11 0 0
BITMAP
03C000000000
03C000000000
03C000000000
03C000000000
03C28B000000
07FB50000000
AAC000000000
03C000000000
01E000000000
00C931000000
0019DFFFFFF3
ENDCHAR
STARTCHAR Nacute
ENCODING 323
SWIDTH 936 0
DWIDTH 15 0
BBX 13 14 1 0
BITMAP
00000016C10000
000003A6100000
00000000000000
3F600000000C30
3DD50000000C30
3C2D4000000C30
3C03D400000C30
3C003D40000C30
3C0003D3000C30
3C00004D300C30
3C000004D20C30
3C0000005D2C30
3C00000005DD30
3C000000006F30
ENDCHAR
STARTCHAR nacute
ENCODING 324
SWIDTH 933 0
DWIDTH 15 0
BBX 13 14 1 0
BITMAP
00000017B00000
000005A5000000
00000000000000
3C0049DEEC6000
3C4CB62114C800
3FC30000002E00
3D000000000D20
3C000000000C30
3C000000000C30
3C000000000C30
3C000000000C30
3C000000000C30
3C000000000C30
3C000000000C30
ENDCHAR
STARTCHAR Ncommaaccent
ENCODING 325
SWIDTH 936 0
DWIDTH 15 0
BBX 13 14 1 -3
BITMAP
3F600000000C30
3DD50000000C30
3C2D4000000C30
3C03D400000C30
3C003D40000C30
3C0003D3000C30
3C00004D300C30
3C000004D20C30
3C0000005D2C30
3C00000005DD30
3C000000006F30
00000000000000
000000E1000000
000002B0000000
ENDCHAR
STARTCHAR ncommaaccent
ENCODING 326
SWIDTH 933 0
DWIDTH 15 0
BBX 13 14 1 -3
BITMAP
3C0049DEEC6000
3C4CB62114C800
3FC30000002E00
3D000000000D20
3C000000000C30
3C000000000C30
3C000000000C30
3C000000000C30
3C000000000C30
3C000000000C30
3C000000000C30
00000000000000
000001E1000000
000003A0000000
ENDCHAR
STARTCHAR Ncaron
ENCODING 327
SWIDTH 936 0
DWIDTH 15 0
BBX 13 14 1 0
BITMAP
0004B626B40000
000018D8100000
00000000000000
3F600000000C30
3DD50000000C30
3C2D4000000C30
3C03D400000C30
3C003D40000C30
3C0003D3000C30
3C00004D300C30
3C000004D20C30
3C0000005D2C30
3C00000005DD30
3C000000006F30
ENDCHAR
STARTCHAR ncaron
ENCODING 328
SWIDTH 933 0
DWIDTH 15 0
BBX 13 14 1 0
BITMAP
0006A527B20000
000029D7100000
00000000000000
3C0049DEEC6000
3C4CB62114C800
3FC30000002E00
3D000000000D20
3C000000000C30
3C000000000C30
3C000000000C30
3C000000000C30
3C000000000C30
3C000000000C30
3C000000000C30
ENDCHAR
STARTCHAR napostrophe
ENCODING 329
SWIDTH 1025 0
DWIDTH 16 0
BBX 15 11 0 0
BITMAP
880B4027CEFD9200
B30B59D841028D10
C00BE71000000970
000B5000000005A0
000B4000000005A0
000B4000000005A0
000B4000000005A0
000B4000000005A0
000B4000000005A0
000B4000000005A0
000B4000000005A0
ENDCHAR
STARTCHAR Eng
ENCODING 330
SWIDTH 936 0
DWIDTH 15 0
BBX 13 11 1 0
BITMAP
3F800000000C30
3C9B1000000C30
3C06D300000C30
3C003D60000C30
3C0001AA100C30
3C000007C20C30
3C0000003D5C30
3C00000001BF20
3C000000001F10
3C000A5103B900
3C0003AEED7000
ENDCHAR
STARTCHAR eng
ENCODING 331
SWIDTH 933 0
DWIDTH 15 0
BBX 13 11 1 0
BITMAP
3C0049DEEC6000
3C4CB62114C800
3FC30000002E00
3D000000000C20
3C000000000C30
3C000000000C30
3C000000000C30
3C000000000C20
3C000000001E10
3C00096103B900
3C00029DFD7000
ENDCHAR
STARTCHAR Omacron
ENCODING 332
SWIDTH 983 0
DWIDTH 16 0
BBX 14 13 1 0
BITMAP
00004FFFF10000
00000000000000
0006BDFEDA5000
03DA410125BC10
2D4000000007C0
880000000000B5
C3000000000069
E100000000005A
D3000000000069
980000000000B5
2E4000000007C0
03D9410025BC10
0017BEFFDA5000
ENDCHAR
STARTCHAR omacron
ENCODING 333
SWIDTH 983 0
DWIDTH 16 0
BBX 14 13 1 0
BITMAP
00004FFFF10000
00000000000000
0006BDFEDA5000
03DA410125BC10
2D4000000007C0
880000000000B5
C3000000000069
E100000000005A
D3000000000069
980000000000B5
2E4000000007C0
03D9410025BC10
0017BEFFDA5000
ENDCHAR
STARTCHAR Obreve
ENCODING 334
SWIDTH 983 0
DWIDTH 16 0
BBX 14 14 1 0
BITMAP
00009812A60000
00001AEE800000
00000000000000
0006BDFEDA5000
03DA410125BC10
2D4000000007C0
880000000000B5
C3000000000069
E100000000005A
D3000000000069
980000000000B5
2E4000000007C0
03D9410025BC10
0017BEFFDA5000
ENDCHAR
STARTCHAR obreve
ENCODING 335
SWIDTH 983 0
DWIDTH 16 0
BBX 14 14 1 0
BITMAP
00009812A60000
00001AEE800000
00000000000000
0006BDFEDA5000
03DA410125BC10
2D4000000007C0
880000000000B5
C3000000000069
E100000000005A
D3000000000069
980000000000B5
2E4000000007C0
03D9410025BC10
0017BEFFDA5000
ENDCHAR
STARTCHAR Ohungarumlaut
ENCODING 336
SWIDTH 983 0
DWIDTH 16 0
BBX 14 14 1 0
BITMAP
000002B33B1000
00001B34A20000
00000000000000
0006BDFEDA5000
03DA410125BC10
2D4000000007C0
880000000000B5
C3000000000069
E100000000005A
D3000000000069
980000000000B5
2E4000000007C0
03D9410025BC10
0017BEFFDA5000
ENDCHAR
STARTCHAR ohungarumlaut
ENCODING 337
SWIDTH 983 0
DWIDTH 16 0
BBX 14 14 1 0
BITMAP
000002B33B1000
00001B34A20000
00000000000000
0006BDFEDA5000
03DA410125BC10
2D4000000007C0
880000000000B5
C3000000000069
E100000000005A
D3000000000069
980000000000B5
2E4000000007C0
03D9410025BC10
0017BEFFDA5000
ENDCHAR
STARTCHAR OE
ENCODING 338
SWIDTH 1338 0
DWIDTH 21 0
BBX 20 11 1 0
BITMAP
0006BDFFFFFFFFFFFFF1
03DA410013D300000000
1D40000000D300000000
8800000000D300000000
C300000000D300000000
E100000000DFFFFFFFB0
D300000000D300000000
9800000000D300000000
2E40000000D300000000
04D9410013D300000000
0017BEFFFFFFFFFFFFF3
ENDCHAR
STARTCHAR oe
ENCODING 339
SWIDTH 1688 0
DWIDTH 27 0
BBX 26 11 1 0
BITMAP
0006BDFEDA5000028CEED93000
03DA410125BB206D721026D700
2D4000000007D5D10000001C40
880000000000BF3000000003B0
C300000000006C0000000000D0
E100000000005FFFFFFFFFFFF2
D300000000006C000000000000
980000000000BF200000000000
2E4000000007B5C10000000000
03D9410025BB107E8410125A40
0017BEFEDA5000028CEFED9400
ENDCHAR
STARTCHAR Racute
ENCODING 340
SWIDTH 833 0
DWIDTH 13 0
BBX 12 14 1 0
BITMAP
000002980000
000089300000
000000000000
3FFFFFFEB500
3C0000025D50
3C00000006B0
3C00000006A0
3C0000014D50
3FFFFFFFB500
3C0000098000
3C000001D400
3C0000003D10
3C00000008A0
3C00000000C6
ENDCHAR
STARTCHAR racute
ENCODING 341
SWIDTH 609 0
DWIDTH 10 0
BBX 9 14 1 0
BITMAP
000017B000
0005A50000
0000000000
3C006BEFA0
3C3C941020
3EC3000000
3E10000000
3C00000000
3C00000000
3C00000000
3C00000000
3C00000000
3C00000000
3C00000000
ENDCHAR
STARTCHAR Rcommaaccent
ENCODING 342
SWIDTH 833 0
DWIDTH 13 0
BBX 12 14 1 -3
BITMAP
3FFFFFFEB500
3C0000025D50
3C00000006B0
3C00000006A0
3C0000014D50
3FFFFFFFB500
3C0000098000
3C000001D400
3C0000003D10
3C00000008A0
3C00000000C6
000000000000
00000C300000
00000D000000
ENDCHAR
STARTCHAR rcommaaccent
ENCODING 343
SWIDTH 609 0
DWIDTH 10 0
BBX 9 14 1 -3
BITMAP
3C006BEFA0
3C3C941020
3EC3000000
3E10000000
3C00000000
3C00000000
3C00000000
3C00000000
3C00000000
3C00000000
3C00000000
0000000000
3D00000000
5800000000
ENDCHAR
STARTCHAR Rcaron
ENCODING 344
SWIDTH 833 0
DWIDTH 13 0
BBX 12 14 1 0
BITMAP
0099438A0000
0004BC500000
000000000000
3FFFFFFEB500
3C0000025D50
3C00000006B0
3C00000006A0
3C0000014D50
3FFFFFFFB500
3C0000098000
3C000001D400
3C0000003D10
3C00000008A0
3C00000000C6
ENDCHAR
STARTCHAR rcaron
ENCODING 345
SWIDTH 609 0
DWIDTH 10 0
BBX 9 14 1 0
BITMAP
06A527B200
0029D71000
0000000000
3C006BEFA0
3C3C941020
3EC3000000
3E10000000
3C00000000
3C00000000
3C00000000
3C00000000
3C00000000
3C00000000
3C00000000
ENDCHAR
STARTCHAR Sacute
ENCODING 346
SWIDTH 787 0
DWIDTH 13 0
BBX 11 14 1 0
BITMAP
0000028A0000
000069400000
000000000000
03ADEFDA5100
4E6210149600
A60000000000
7A1000000000
08D941000000
00159DC72000
00000016C700
000000001C30
000000000B40
884210149C10
16BDFFEC7100
ENDCHAR
STARTCHAR sacute
ENCODING 347
SWIDTH 787 0
DWIDTH 13 0
BBX 11 14 1 0
BITMAP
0000028A0000
000069400000
000000000000
03ADEFDA5100
4E6210149600
A60000000000
7A1000000000
08D941000000
00159DC72000
00000016C700
000000001C30
000000000B40
884210149C10
16BDFFEC7100
ENDCHAR
STARTCHAR Scircumflex
ENCODING 348
SWIDTH 787 0
DWIDTH 13 0
BBX 11 14 1 0
BITMAP
0003AD600000
007A427B1000
000000000000
03ADEFDA5100
4E6210149600
A60000000000
7A1000000000
08D941000000
00159DC72000
00000016C700
000000001C30
000000000B40
884210149C10
16BDFFEC7100
ENDCHAR
STARTCHAR scircumflex
ENCODING 349
SWIDTH 787 0
DWIDTH 13 0
BBX 11 14 1 0
BITMAP
0003AD600000
007A427B1000
000000000000
03ADEFDA5100
4E6210149600
A60000000000
7A1000000000
08D941000000
00159DC72000
00000016C700
000000001C30
000000000B40
884210149C10
16BDFFEC7100
ENDCHAR
STARTCHAR Scedilla
ENCODING 350
SWIDTH 787 0
DWIDTH 13 0
BBX 11 14 1 -3
BITMAP
03ADEFDA5100
4E6210149600
A60000000000
7A1000000000
08D941000000
00159DC72000
00000026D700
000000001D30
000000000B40
884210149C10
16BDFFEC7100
00004FA00000
000001D00000
0008FE900000
ENDCHAR
STARTCHAR scedilla
ENCODING 351
SWIDTH 787 0
DWIDTH 13 0
BBX 11 14 1 -3
BITMAP
03ADEFDA5100
4E6210149600
A60000000000
7A1000000000
08D941000000
00159DC72000
00000026D700
000000001D30
000000000B40
884210149C10
16BDFFEC7100
00004FA00000
000001D00000
0008FE900000
ENDCHAR
STARTCHAR Scaron
ENCODING 352
SWIDTH 787 0
DWIDTH 13 0
BBX 11 14 1 0
BITMAP
0079427B1000
0003AD600000
000000000000
03ADEFDA5100
4E6210149600
A60000000000
7A1000000000
08D941000000
00159DC72000
00000016C700
000000001C30
000000000B40
884210149C10
16BDFFEC7100
ENDCHAR
STARTCHAR scaron
ENCODING 353
SWIDTH 787 0
DWIDTH 13 0
BBX 11 14 1 0
BITMAP
0079427B1000
0003AD600000
000000000000
03ADEFDA5100
4E6210149600
A60000000000
7A1000000000
08D941000000
00159DC72000
00000016C700
000000001C30
000000000B40
884210149C10
16BDFFEC7100
ENDCHAR
STARTCHAR Tcommaaccent
ENCODING 354
SWIDTH 708 0
DWIDTH 11 0
BBX 12 14 0 -3
BITMAP
AFFFFFFFFFF1
00000C200000
00000C200000
00000C200000
00000C200000
00000C200000
00000C200000
00000C200000
00000C200000
00000C200000
00000C200000
000000000000
00000C300000
00000D000000
ENDCHAR
STARTCHAR tcommaaccent
ENCODING 355
SWIDTH 708 0
DWIDTH 11 0
BBX 12 14 0 -3
BITMAP
AFFFFFFFFFF1
00000C200000
00000C200000
00000C200000
00000C200000
00000C200000
00000C200000
00000C200000
00000C200000
00000C200000
00000C200000
000000000000
00000C300000
00000D000000
ENDCHAR
STARTCHAR Tcaron
ENCODING 356
SWIDTH 708 0
DWIDTH 11 0
BBX 12 14 0 0
BITMAP
002B725A6000
00017D920000
000000000000
AFFFFFFFFFF1
00000C200000
00000C200000
00000C200000
00000C200000
00000C200000
00000C200000
00000C200000
00000C200000
00000C200000
00000C200000
ENDCHAR
STARTCHAR tcaron
ENCODING 357
SWIDTH 708 0
DWIDTH 11 0
BBX 12 14 0 0
BITMAP
002B725A6000
00017D920000
000000000000
AFFFFFFFFFF1
00000C200000
00000C200000
00000C200000
00000C200000
00000C200000
00000C200000
00000C200000
00000C200000
00000C200000
00000C200000
ENDCHAR
STARTCHAR Tbar
ENCODING 358
SWIDTH 708 0
DWIDTH 11 0
BBX 12 11 0 0
BITMAP
AFFFFFFFFFF1
00000C200000
00000C200000
00000C200000
09FFFFFFFE00
00000C200000
00000C200000
00000C200000
00000C200000
00000C200000
00000C200000
ENDCHAR
STARTCHAR tbar
ENCODING 359
SWIDTH 708 0
DWIDTH 11 0
BBX 12 11 0 0
BITMAP
AFFFFFFFFFF1
00000C200000
00000C200000
00000C200000
09FFFFFFFE00
00000C200000
00000C200000
00000C200000
00000C200000
00000C200000
00000C200000
ENDCHAR
STARTCHAR Utilde
ENCODING 360
SWIDTH 891 0
DWIDTH 14 0
BBX 12 14 1 0
BITMAP
0002DC51B000
000853BE6000
000000000000
4A0000000068
4A0000000068
4A0000000068
4A0000000068
4A0000000068
4A0000000068
4A0000000068
4B0000000078
1E20000000C5
07E720125CB0
004ADFFEB600
ENDCHAR
STARTCHAR utilde
ENCODING 361
SWIDTH 931 0
DWIDTH 15 0
BBX 13 14 1 0
BITMAP
0000BE71A20000
0004929EA00000
00000000000000
4B000000000E10
4B000000000E10
4B000000000E10
4B000000000E10
4B000000000E10
4B000000000E10
4B000000000E10
3C000000001E10
1E10000004DF10
08B31126CC3E10
006CEED9400E10
ENDCHAR
STARTCHAR Umacron
ENCODING 362
SWIDTH 891 0
DWIDTH 14 0
BBX 12 13 1 0
BITMAP
0000FFFF4000
000000000000
4A0000000068
4A0000000068
4A0000000068
4A0000000068
4A0000000068
4A0000000068
4A0000000068
4B0000000078
1E20000000C5
07E720125CB0
004ADFFEB600
ENDCHAR
STARTCHAR umacron
ENCODING 363
SWIDTH 931 0
DWIDTH 15 0
BBX 13 13 1 0
BITMAP
0000BFFF900000
00000000000000
4B000000000E10
4B000000000E10
4B000000000E10
4B000000000E10
4B000000000E10
4B000000000E10
4B000000000E10
3C000000001E10
1E10000004DF10
08B31126CC3E10
006CEED9400E10
ENDCHAR
STARTCHAR Ubreve
ENCODING 364
SWIDTH 891 0
DWIDTH 14 0
BBX 12 14 1 0
BITMAP
0005B217A000
00008EEA1000
000000000000
4A0000000068
4A0000000068
4A0000000068
4A0000000068
4A0000000068
4A0000000068
4A0000000068
4B0000000078
1E20000000C5
07E720125CB0
004ADFFEB600
ENDCHAR
STARTCHAR ubreve
ENCODING 365
SWIDTH 931 0
DWIDTH 15 0
BBX 13 14 1 0
BITMAP
0001D304D00000
00005DEC300000
00000000000000
4B000000000E10
4B000000000E10
4B000000000E10
4B000000000E10
4B000000000E10
4B000000000E10
4B000000000E10
3C000000001E10
1E10000004DF10
08B31126CC3E10
006CEED9400E10
ENDCHAR
STARTCHAR Uring
ENCODING 366
SWIDTH 891 0
DWIDTH 14 0
BBX 12 15 1 0
BITMAP
00006DE90000
0000C31C2000
00006EE90000
000000000000
4A0000000068
4A0000000068
4A0000000068
4A0000000068
4A0000000068
4A0000000068
4A0000000068
4B0000000078
1E20000000C5
07E720125CB0
004ADFFEB600
ENDCHAR
STARTCHAR uring
ENCODING 367
SWIDTH 931 0
DWIDTH 15 0
BBX 13 15 1 0
BITMAP
00003CFC200000
00008609600000
00003DFC200000
00000000000000
4B000000000E10
4B000000000E10
4B000000000E10
4B000000000E10
4B000000000E10
4B000000000E10
4B000000000E10
3C000000001E10
1E10000004DF10
08B31126CC3E10
006CEED9400E10
ENDCHAR
STARTCHAR Uhungarumlaut
ENCODING 368
SWIDTH 891 0
DWIDTH 14 0
BBX 12 14 1 0
BITMAP
00000862B300
0000A51B3000
000000000000
4A0000000068
4A0000000068
4A0000000068
4A0000000068
4A0000000068
4A0000000068
4A0000000068
4B0000000078
1E20000000C5
07E720125CB0
004ADFFEB600
ENDCHAR
STARTCHAR uhungarumlaut
ENCODING 369
SWIDTH 931 0
DWIDTH 15 0
BBX 13 14 1 0
BITMAP
00000590870000
00007819600000
00000000000000
4B000000000E10
4B000000000E10
4B000000000E10
4B000000000E10
4B000000000E10
4B000000000E10
4B000000000E10
3C000000001E10
1E10000004DF10
08B31126CC3E10
006CEED9400E10
ENDCHAR
STARTCHAR Uogonek
ENCODING 370
SWIDTH 891 0
DWIDTH 14 0
BBX 12 14 1 -3
BITMAP
4A0000000068
4A0000000068
4A0000000068
4A0000000068
4A0000000068
4A0000000068
4A0000000068
4B0000000078
1E20000000C5
07E720125CB0
004ADFFEB600
00001B200000
00004A100000
00001CFF1000
ENDCHAR
STARTCHAR uogonek
ENCODING 371
SWIDTH 931 0
DWIDTH 15 0
BBX 14 14 1 -3
BITMAP
4B000000000E10
4B000000000E10
4B000000000E10
4B000000000E10
4B000000000E10
4B000000000E10
4B000000000E10
3C000000001E10
1E10000004DF10
08B31126CC3E10
006CEED9400E10
00000000009500
0000000003B100
0000000001CFF2
ENDCHAR
STARTCHAR Wcircumflex
ENCODING 372
SWIDTH 1266 0
DWIDTH 20 0
BBX 20 14 0 0
BITMAP
000000003BC500000000
000000089438B0000000
00000000000000000000
3D0000000BE000000097
0C4000002EB5000001E1
06A00000795B000006A0
01E10000D30E20000C40
00A70003C00970003D00
004C00097003D0008800
000D300E1000C300E200
0007905A00007905B000
0001E1B500001E0B5000
0000A7E000000A7E0000
00004F80000004F80000
ENDCHAR
STARTCHAR wcircumflex
ENCODING 373
SWIDTH 1266 0
DWIDTH 20 0
BBX 20 14 0 0
BITMAP
000000003BC500000000
000000089438B0000000
00000000000000000000
3D0000000BE000000097
0C4000002EB5000001E1
06A00000795B000006A0
01E10000D30E20000C40
00A70003C00970003D00
004C00097003D0008800
000D300E1000C300E200
0007905A00007905B000
0001E1B500001E0B5000
0000A7E000000A7E0000
00004F80000004F80000
ENDCHAR
STARTCHAR Ycircumflex
ENCODING 374
SWIDTH 763 0
DWIDTH 12 0
BBX 12 14 0 0
BITMAP
00003BC50000
00089438B000
000000000000
2D30000001D4
04D100000B70
007B00008A00
000A8004C100
0001C52D2000
00002DC40000
000006A00000
000006900000
000006900000
000006900000
000006900000
ENDCHAR
STARTCHAR ycircumflex
ENCODING 375
SWIDTH 911 0
DWIDTH 15 0
BBX 12 14 1 0
BITMAP
00004BC50000
00099438B000
000000000000
87000000003C
87000000003C
87000000003C
79000000007C
3E10000007DC
08D51025BB4C
005BEFDA403B
00000000006A
0000000002E5
795210248E80
16ADEFDC9300
ENDCHAR
STARTCHAR Ydieresis
ENCODING 376
SWIDTH 763 0
DWIDTH 12 0
BBX 12 13 0 0
BITMAP
0000F20D4000
000000000000
2D30000001D4
04D100000B70
007B00008A00
000A8004C100
0001C52D2000
00002DC40000
000006A00000
000006900000
000006900000
000006900000
000006900000
ENDCHAR
STARTCHAR Zacute
ENCODING 377
SWIDTH 728 0
DWIDTH 12 0
BBX 10 14 1 0
BITMAP
000003A700
0000983000
0000000000
AFFFFFFFF6
00000007A0
0000005C00
000003D100
00002D3000
0001C40000
000B600000
0098000000
07B0000000
5C10000000
DFFFFFFFF9
ENDCHAR
STARTCHAR zacute
ENCODING 378
SWIDTH 728 0
DWIDTH 12 0
BBX 10 14 1 0
BITMAP
000003A700
0000983000
0000000000
AFFFFFFFF6
00000007A0
0000005C00
000003D100
00002D3000
0001C40000
000B600000
0098000000
07B0000000
5C10000000
DFFFFFFFF9
ENDCHAR
STARTCHAR Zdotaccent
ENCODING 379
SWIDTH 728 0
DWIDTH 12 0
BBX 10 13 1 0
BITMAP
0000A80000
0000000000
AFFFFFFFF6
00000007A0
0000005C00
000003D100
00002D3000
0001C40000
000B600000
0098000000
07B0000000
5C10000000
DFFFFFFFF9
ENDCHAR
STARTCHAR zdotaccent
ENCODING 380
SWIDTH 728 0
DWIDTH 12 0
BBX 10 13 1 0
BITMAP
0000A80000
0000000000
AFFFFFFFF6
00000007A0
0000005C00
000003D100
00002D3000
0001C40000
000B600000
0098000000
07B0000000
5C10000000
DFFFFFFFF9
ENDCHAR
STARTCHAR Zcaron
ENCODING 381
SWIDTH 728 0
DWIDTH 12 0
BBX 10 14 1 0
BITMAP
00A8339900
0005CB4000
0000000000
AFFFFFFFF6
00000007A0
0000005C00
000003D100
00002D3000
0001C40000
000B600000
0098000000
07B0000000
5C10000000
DFFFFFFFF9
ENDCHAR
STARTCHAR zcaron
ENCODING 382
SWIDTH 728 0
DWIDTH 12 0
BBX 10 14 1 0
BITMAP
00A8339900
0005CB4000
0000000000
AFFFFFFFF6
00000007A0
0000005C00
000003D100
00002D3000
0001C40000
000B600000
0098000000
07B0000000
5C10000000
DFFFFFFFF9
ENDCHAR
STARTCHAR florin
ENCODING 402
SWIDTH 835 0
DWIDTH 13 0
BBX 13 12 0 -1
BITMAP
000000006DFFE0
00000004D40000
0000000A500000
0000000E100000
0000CFFFFF6000
00000088000000
000000C3000000
000002E0000000
000006A0000000
00000C50000000
65018C00000000
1AEEA200000000
ENDCHAR
STARTCHAR AEacute
ENCODING 508
SWIDTH 1172 0
DWIDTH 19 0
BBX 18 14 0 0
BITMAP
0000000000004A5000
00000000000A820000
000000000000000000
0000002EFFFFFFFFF7
000000B68800000000
000006B08800000000
00002D208800000000
0000B6008800000000
0006B0008FFFFFFFF1
001D20008800000000
00AFFFFFF800000000
05C000008800000000
1E3000008800000000
A90000008FFFFFFFF8
ENDCHAR
STARTCHAR aeacute
ENCODING 509
SWIDTH 1551 0
DWIDTH 25 0
BBX 23 14 1 0
BITMAP
0000000000005B2000000000
00000000002A610000000000
000000000000000000000000
027BEFEDA500049DEEC82000
0C7310025BA09D620138D400
0000000000BCB00000002D20
00000000007E100000000680
0001589BDEF90000000001C0
04CEA854218FFFFFFFFFFFE0
7D4000000069000000000000
E2000000001D100000000000
E2000000017EA00000000000
8D5201259EA39D7310136B10
06BEFEDA6100039CEFEC8300
ENDCHAR
STARTCHAR Oslashacute
ENCODING 510
SWIDTH 983 0
DWIDTH 16 0
BBX 14 15 1 -1
BITMAP
00000003A60000
00000098200000
00000000003B10
0006BDFEDAD200
03DA41012CCC10
2D4000005907C0
88000002C100C5
C300001C300078
E100009600005A
C30005A0000069
88002C100000B5
2E40C3000007C0
04DC910025BC10
005CBDFFDA5000
02C10000000000
ENDCHAR
STARTCHAR oslashacute
ENCODING 511
SWIDTH 983 0
DWIDTH 16 0
BBX 14 15 1 -1
BITMAP
00000003A60000
00000098200000
00000000003B10
0006BDFEDAD200
03DA41012CCC10
2D4000005907C0
88000002C100C5
C300001C300078
E100009600005A
C30005A0000069
88002C100000B5
2E40C3000007C0
04DC910025BC10
005CBDFFDA5000
02C10000000000
ENDCHAR
STARTCHAR dotlessj
ENCODING 567
SWIDTH 590 0
DWIDTH 9 0
BBX 8 11 0 0
BITMAP
0000004B
0000004B
0000004B
0000004B
0000004B
0000004B
0000004B
0000005A
00000098
B51028D1
4AEFD920
ENDCHAR
STARTCHAR circumflex
ENCODING 710
SWIDTH 527 0
DWIDTH 8 0
BBX 7 2 1 9
BITMAP
03AD6000
7A427B10
ENDCHAR
STARTCHAR caron
ENCODING 711
SWIDTH 527 0
DWIDTH 8 0
BBX 7 2 1 9
BITMAP
7A427B10
03AD6000
ENDCHAR
STARTCHAR breve
ENCODING 728
SWIDTH 527 0
DWIDTH 8 0
BBX 6 2 1 9
BITMAP
4B216B
07DEB2
ENDCHAR
STARTCHAR dotaccent
ENCODING 729
SWIDTH 527 0
DWIDTH 8 0
BBX 2 1 3 9
BITMAP
6C
ENDCHAR
STARTCHAR ring
ENCODING 730
SWIDTH 527 0
DWIDTH 8 0
BBX 5 3 2 9
BITMAP
5DEA00
B31B30
5DEA00
ENDCHAR
STARTCHAR ogonek
ENCODING 731
SWIDTH 527 0
DWIDTH 8 0
BBX 4 3 2 -3
BITMAP
1930
7700
4DFD
ENDCHAR
STARTCHAR tilde
ENCODING 732
SWIDTH 527 0
DWIDTH 8 0
BBX 6 2 1 9
BITMAP
1DD61C
763AE7
ENDCHAR
STARTCHAR hungarumlaut
ENCODING 733
SWIDTH 527 0
DWIDTH 8 0
BBX 6 2 2 9
BITMAP
0771A4
961B40
ENDCHAR
STARTCHAR commaaccent
ENCODING 806
SWIDTH 527 0
DWIDTH 8 0
BBX 2 2 3 -3
BITMAP
4B
77
ENDCHAR
STARTCHAR mu
ENCODING 956
SWIDTH 705 0
DWIDTH 11 0
BBX 10 10 0 -3
BITMAP
008700004A
00B4000087
00E10000B4
02C00000E1
05B00007D0
08E5129AC0
0B4BFC50E0
0E00000000
2C00000000
6900000000
ENDCHAR
STARTCHAR Wgrave
ENCODING 7808
SWIDTH 1266 0
DWIDTH 20 0
BBX 20 14 0 0
BITMAP
00000006A30000000000
0000000028A000000000
00000000000000000000
3D0000000BE000000097
0C4000002EB5000001E1
06A00000795B000006A0
01E10000D30E20000C40
00A70003C00970003D00
004C00097003D0008800
000D300E1000C300E200
0007905A00007905B000
0001E1B500001E0B5000
0000A7E000000A7E0000
00004F80000004F80000
ENDCHAR
STARTCHAR wgrave
ENCODING 7809
SWIDTH 1266 0
DWIDTH 20 0
BBX 20 14 0 0
BITMAP
00000006A30000000000
0000000028A000000000
00000000000000000000
3D0000000BE000000097
0C4000002EB5000001E1
06A00000795B000006A0
01E10000D30E20000C40
00A70003C00970003D00
004C00097003D0008800
000D300E1000C300E200
0007905A00007905B000
0001E1B500001E0B5000
0000A7E000000A7E0000
00004F80000004F80000
ENDCHAR
STARTCHAR Wacute
ENCODING 7810
SWIDTH 1266 0
DWIDTH 20 0
BBX 20 14 0 0
BITMAP
00000000002990000000
00000000079400000000
00000000000000000000
3D0000000BE000000097
0C4000002EB5000001E1
06A00000795B000006A0
01E10000D30E20000C40
00A70003C00970003D00
004C00097003D0008800
000D300E1000C300E200
0007905A00007905B000
0001E1B500001E0B5000
0000A7E000000A7E0000
00004F80000004F80000
ENDCHAR
STARTCHAR wacute
ENCODING 7811
SWIDTH 1266 0
DWIDTH 20 0
BBX 20 14 0 0
BITMAP
00000000002990000000
00000000079400000000
00000000000000000000
3D0000000BE000000097
0C4000002EB5000001E1
06A00000795B000006A0
01E10000D30E20000C40
00A70003C00970003D00
004C00097003D0008800
000D300E1000C300E200
0007905A00007905B000
0001E1B500001E0B5000
0000A7E000000A7E0000
00004F80000004F80000
ENDCHAR
STARTCHAR Wdieresis
ENCODING 7812
SWIDTH 1266 0
DWIDTH 20 0
BBX 20 13 0 0
BITMAP
00000000F20D40000000
00000000000000000000
3D0000000BE000000097
0C4000002EB5000001E1
06A00000795B000006A0
01E10000D30E20000C40
00A70003C00970003D00
004C00097003D0008800
000D300E1000C300E200
0007905A00007905B000
0001E1B500001E0B5000
0000A7E000000A7E0000
00004F80000004F80000
ENDCHAR
STARTCHAR wdieresis
ENCODING 7813
SWIDTH 1266 0
DWIDTH 20 0
BBX 20 13 0 0
BITMAP
00000000F20D40000000
00000000000000000000
3D0000000BE000000097
0C4000002EB5000001E1
06A00000795B000006A0
01E10000D30E20000C40
00A70003C00970003D00
004C00097003D0008800
000D300E1000C300E200
0007905A00007905B000
0001E1B500001E0B5000
0000A7E000000A7E0000
00004F80000004F80000
ENDCHAR
STARTCHAR Ygrave
ENCODING 7922
SWIDTH 763 0
DWIDTH 12 0
BBX 12 14 0 0
BITMAP
0006A3000000
000028A00000
000000000000
2D30000001D4
04D100000B70
007B00008A00
000A8004C100
0001C52D2000
00002DC40000
000006A00000
000006900000
000006900000
000006900000
000006900000
ENDCHAR
STARTCHAR ygrave
ENCODING 7923
SWIDTH 911 0
DWIDTH 15 0
BBX 12 14 1 0
BITMAP
0006A3000000
000028A00000
000000000000
87000000003C
87000000003C
87000000003C
79000000007C
3E10000007DC
08D51025BB4C
005BEFDA403B
00000000006A
0000000002E5
795210248E80
16ADEFDC9300
ENDCHAR
STARTCHAR endash
ENCODING 8211
SWIDTH 419 0
DWIDTH 7 0
BBX 7 1 0 5
BITMAP
AFFFFF60
ENDCHAR
STARTCHAR emdash
ENCODING 8212
SWIDTH 1000 0
DWIDTH 16 0
BBX 16 1 0 5
BITMAP
FFFFFFFFFFFFFFFF
ENDCHAR
STARTCHAR quoteleft
ENCODING 8216
SWIDTH 163 0
DWIDTH 3 0
BBX 3 3 0 8
BITMAP
0C10
1D00
6A00
ENDCHAR
STARTCHAR quoteright
ENCODING 8217
SWIDTH 163 0
DWIDTH 3 0
BBX 2 3 0 8
BITMAP
1E
4A
66
ENDCHAR
STARTCHAR quotesinglbase
ENCODING 8218
SWIDTH 163 0
DWIDTH 3 0
BBX 2 3 0 -2
BITMAP
1E
4A
66
ENDCHAR
STARTCHAR quotedblleft
ENCODING 8220
SWIDTH 303 0
DWIDTH 5 0
BBX 5 3 0 8
BITMAP
0C1840
1D0D20
6A2E00
ENDCHAR
STARTCHAR quotedblright
ENCODING 8221
SWIDTH 303 0
DWIDTH 5 0
BBX 5 3 0 8
BITMAP
1E0D30
4A0E00
663A00
ENDCHAR
STARTCHAR quotedblbase
ENCODING 8222
SWIDTH 303 0
DWIDTH 5 0
BBX 5 3 0 -2
BITMAP
1E0D30
4A0E00
663A00
ENDCHAR
STARTCHAR dagger
ENCODING 8224
SWIDTH 500 0
DWIDTH 8 0
BBX 6 11 1 0
BITMAP
007700
007700
007700
8FFFF8
007700
007700
007700
007700
007700
007700
007700
ENDCHAR
STARTCHAR daggerdbl
ENCODING 8225
SWIDTH 500 0
DWIDTH 8 0
BBX 6 11 1 0
BITMAP
007700
007700
007700
8FFFF8
007700
007700
8FFFF8
007700
007700
007700
007700
ENDCHAR
STARTCHAR bullet
ENCODING 8226
SWIDTH 352 0
DWIDTH 6 0
BBX 4 3 1 4
BITMAP
4EC1
AFF5
4EC1
ENDCHAR
STARTCHAR ellipsis
ENCODING 8230
SWIDTH 555 0
DWIDTH 9 0
BBX 9 2 0 0
BITMAP
3F24F24F10
3F24F24F10
ENDCHAR
STARTCHAR perthousand
ENCODING 8240
SWIDTH 1401 0
DWIDTH 22 0
BBX 22 11 0 0
BITMAP
02BEE910002C2000000000
0D51299000B40000000000
2C0001D009700000000000
0D5119905A000000000000
02BEE913C1000000000000
0000001C30000000000000
000000A507DEC4005CED60
000007905B214D23D313C5
00004C0095000866800059
0002D2005B203D23D302C5
000C400007DEC4005CED60
ENDCHAR
STARTCHAR guilsinglleft
ENCODING 8249
SWIDTH 257 0
DWIDTH 4 0
BBX 4 5 0 3
BITMAP
0094
0A80
5C00
0A80
0094
ENDCHAR
STARTCHAR guilsinglright
ENCODING 8250
SWIDTH 257 0
DWIDTH 4 0
BBX 4 5 0 3
BITMAP
2B10
05C1
0098
05C1
2B10
ENDCHAR
STARTCHAR fraction
ENCODING 8260
SWIDTH 200 0
DWIDTH 3 0
BBX 10 11 -3 0
BITMAP
00000002C2
0000000C40
0000009700
000005A000
00003C1000
0001C30000
000A500000
0079000000
04C0000000
2D20000000
C400000000
ENDCHAR
STARTCHAR Euro
ENCODING 8364
SWIDTH 833 0
DWIDTH 13 0
BBX 13 11 0 0
BITMAP
000028DFED9400
0004E831125B20
002D3000000000
00970000000000
6FFFFFFFF70000
00E00000000000
6FFFFFFFA00000
00A60000000000
003D2000000000
0005E731025B20
000029DFED9400
ENDCHAR
STARTCHAR trademark
ENCODING 8482
SWIDTH 773 0
DWIDTH 12 0
BBX 11 5 0 6
BITMAP
8FFF4F2005C0
00B00B8009B0
00B00B7245B0
00B00B1890B0
00B00B0860B0
ENDCHAR
STARTCHAR partialdiff
ENCODING 8706
SWIDTH 790 0
DWIDTH 13 0
BBX 11 11 1 0
BITMAP
0006CFEC6000
00583014CA00
000000001D40
000000000790
017CEED825A0
2D931027DB90
B50000001C70
E00000000D20
E3000000A900
6D62015CA000
04ADFEB50000
ENDCHAR
STARTCHAR minus
ENCODING 8722
SWIDTH 634 0
DWIDTH 10 0
BBX 8 1 1 5
BITMAP
AFFFFFFC
ENDCHAR
STARTCHAR uni2215
ENCODING 8725
SWIDTH 200 0
DWIDTH 3 0
BBX 10 11 -3 0
BITMAP
00000002C2
0000000C40
0000009700
000005A000
00003C1000
0001C30000
000A500000
0079000000
04C0000000
2D20000000
C400000000
ENDCHAR
STARTCHAR approxequal
ENCODING 8776
SWIDTH 634 0
DWIDTH 10 0
BBX 8 5 1 3
BITMAP
4DEA5118
8215AEE6
00000000
4DEA5118
8215AEE6
ENDCHAR
STARTCHAR notequal
ENCODING 8800
SWIDTH 634 0
DWIDTH 10 0
BBX 8 8 1 1
BITMAP
00003B00
00009500
AFFFFFFC
0004A000
00095000
AFFFFFFC
004A0000
00A40000
ENDCHAR
STARTCHAR lessequal
ENCODING 8804
SWIDTH 634 0
DWIDTH 10 0
BBX 8 9 1 1
BITMAP
0000017A
0004AD82
28DA4000
CD200000
28DA4000
0004AD82
0000017A
00000000
AFFFFFFC
ENDCHAR
STARTCHAR greaterequal
ENCODING 8805
SWIDTH 634 0
DWIDTH 10 0
BBX 8 9 1 1
BITMAP
98200000
17DB5000
00039D93
000001BE
00039D93
17DB5000
98200000
00000000
AFFFFFFC
ENDCHAR
STARTCHAR fi
ENCODING 64257
SWIDTH 1104 0
DWIDTH 18 0
BBX 15 11 1 0
BITMAP
005ADFFFFFF201D0
07D62000000001D0
1E200000000001D0
3C000000000001D0
3C000000000001D0
3FFFFFFFFFE001D0
3C000000000001D0
3C000000000001D0
3C000000000001D0
3C000000000001D0
3C000000000001D0
ENDCHAR
STARTCHAR fl
ENCODING 64258
SWIDTH 1527 0
DWIDTH 24 0
BBX 24 11 1 0
BITMAP
005ADFFFFFF201D000000000
07D62000000001D000000000
1E200000000001D000000000
3C000000000001D000000000
3C000000000001D000000000
3FFFFFFFFFE001D000000000
3C000000000001D000000000
3C000000000001E000000000
3C000000000000E100000000
3C000000000000AB31000000
3C00000000000018DFFFFFF4
ENDCHAR
STARTCHAR .notdef
ENCODING -1
SWIDTH 1000 0
DWIDTH 16 0
BBX 1 1 0 0
BITMAP
00
ENDCHAR
ENDFONT
